<?xml version="1.0" encoding="UTF-8" standalone="no"?>
<svg
   xmlns:dc="http://purl.org/dc/elements/1.1/"
   xmlns:cc="http://creativecommons.org/ns#"
   xmlns:rdf="http://www.w3.org/1999/02/22-rdf-syntax-ns#"
   xmlns:svg="http://www.w3.org/2000/svg"
   xmlns="http://www.w3.org/2000/svg"
   version="1.1"
   id="svg2"
   xml:space="preserve"
   width="500"
   height="500"
   viewBox="0 0 500 500"><metadata
     id="metadata8"><rdf:RDF><cc:Work
         rdf:about=""><dc:format>image/svg+xml</dc:format><dc:type
           rdf:resource="http://purl.org/dc/dcmitype/StillImage" /></cc:Work></rdf:RDF></metadata><defs
     id="defs6"><clipPath
       clipPathUnits="userSpaceOnUse"
       id="clipPath20"><path
         d="M 5.621,3.746 H 365.598 V 371.945 H 5.621 Z"
         id="path18" /></clipPath><clipPath
       clipPathUnits="userSpaceOnUse"
       id="clipPath30"><path
         d="M 0,0 H 376 V 376 H 0 Z"
         id="path28" /></clipPath><clipPath
       clipPathUnits="userSpaceOnUse"
       id="clipPath42"><path
         d="M 5.621,3.746 H 365.59 V 371.937 H 5.621 Z"
         id="path40" /></clipPath><clipPath
       clipPathUnits="userSpaceOnUse"
       id="clipPath52"><path
         d="M 0,0 H 376 V 376 H 0 Z"
         id="path50" /></clipPath><clipPath
       clipPathUnits="userSpaceOnUse"
       id="clipPath68"><path
         d="M 0,0 H 376 V 376 H 0 Z"
         id="path66" /></clipPath><clipPath
       clipPathUnits="userSpaceOnUse"
       id="clipPath84"><path
         d="M 0,0 H 376 V 376 H 0 Z"
         id="path82" /></clipPath><clipPath
       clipPathUnits="userSpaceOnUse"
       id="clipPath100"><path
         d="M 0,0 H 376 V 376 H 0 Z"
         id="path98" /></clipPath><clipPath
       clipPathUnits="userSpaceOnUse"
       id="clipPath116"><path
         d="M 0,0 H 376 V 376 H 0 Z"
         id="path114" /></clipPath><clipPath
       clipPathUnits="userSpaceOnUse"
       id="clipPath130"><path
         d="M 0,0 H 376 V 376 H 0 Z"
         id="path128" /></clipPath><clipPath
       clipPathUnits="userSpaceOnUse"
       id="clipPath144"><path
         d="M 0,0 H 376 V 376 H 0 Z"
         id="path142" /></clipPath><clipPath
       clipPathUnits="userSpaceOnUse"
       id="clipPath160"><path
         d="M 0,0 H 376 V 376 H 0 Z"
         id="path158" /></clipPath><clipPath
       clipPathUnits="userSpaceOnUse"
       id="clipPath176"><path
         d="M 0,0 H 376 V 376 H 0 Z"
         id="path174" /></clipPath><clipPath
       clipPathUnits="userSpaceOnUse"
       id="clipPath192"><path
         d="M 0,0 H 376 V 376 H 0 Z"
         id="path190" /></clipPath><clipPath
       clipPathUnits="userSpaceOnUse"
       id="clipPath208"><path
         d="M 0,0 H 376 V 376 H 0 Z"
         id="path206" /></clipPath><clipPath
       clipPathUnits="userSpaceOnUse"
       id="clipPath224"><path
         d="M 0,0 H 376 V 376 H 0 Z"
         id="path222" /></clipPath><clipPath
       clipPathUnits="userSpaceOnUse"
       id="clipPath238"><path
         d="M 0,0 H 376 V 376 H 0 Z"
         id="path236" /></clipPath><clipPath
       clipPathUnits="userSpaceOnUse"
       id="clipPath252"><path
         d="M 0,0 H 376 V 376 H 0 Z"
         id="path250" /></clipPath><clipPath
       clipPathUnits="userSpaceOnUse"
       id="clipPath268"><path
         d="M 0,0 H 376 V 376 H 0 Z"
         id="path266" /></clipPath><clipPath
       clipPathUnits="userSpaceOnUse"
       id="clipPath282"><path
         d="M 0,0 H 376 V 376 H 0 Z"
         id="path280" /></clipPath><clipPath
       clipPathUnits="userSpaceOnUse"
       id="clipPath296"><path
         d="M 0,0 H 376 V 376 H 0 Z"
         id="path294" /></clipPath><clipPath
       clipPathUnits="userSpaceOnUse"
       id="clipPath312"><path
         d="M 0,0 H 376 V 376 H 0 Z"
         id="path310" /></clipPath><clipPath
       clipPathUnits="userSpaceOnUse"
       id="clipPath326"><path
         d="M 0,0 H 376 V 376 H 0 Z"
         id="path324" /></clipPath><clipPath
       clipPathUnits="userSpaceOnUse"
       id="clipPath340"><path
         d="M 0,0 H 376 V 376 H 0 Z"
         id="path338" /></clipPath><clipPath
       clipPathUnits="userSpaceOnUse"
       id="clipPath354"><path
         d="M 0,0 H 376 V 376 H 0 Z"
         id="path352" /></clipPath><clipPath
       clipPathUnits="userSpaceOnUse"
       id="clipPath370"><path
         d="M 0,0 H 376 V 376 H 0 Z"
         id="path368" /></clipPath><clipPath
       clipPathUnits="userSpaceOnUse"
       id="clipPath384"><path
         d="M 0,0 H 376 V 376 H 0 Z"
         id="path382" /></clipPath><clipPath
       clipPathUnits="userSpaceOnUse"
       id="clipPath398"><path
         d="M 0,0 H 376 V 376 H 0 Z"
         id="path396" /></clipPath><clipPath
       clipPathUnits="userSpaceOnUse"
       id="clipPath414"><path
         d="M 0,0 H 376 V 376 H 0 Z"
         id="path412" /></clipPath><clipPath
       clipPathUnits="userSpaceOnUse"
       id="clipPath428"><path
         d="M 0,0 H 376 V 376 H 0 Z"
         id="path426" /></clipPath><clipPath
       clipPathUnits="userSpaceOnUse"
       id="clipPath442"><path
         d="M 0,0 H 376 V 376 H 0 Z"
         id="path440" /></clipPath><clipPath
       clipPathUnits="userSpaceOnUse"
       id="clipPath456"><path
         d="M 0,0 H 376 V 376 H 0 Z"
         id="path454" /></clipPath><clipPath
       clipPathUnits="userSpaceOnUse"
       id="clipPath470"><path
         d="M 0,0 H 376 V 376 H 0 Z"
         id="path468" /></clipPath><clipPath
       clipPathUnits="userSpaceOnUse"
       id="clipPath486"><path
         d="M 0,0 H 376 V 376 H 0 Z"
         id="path484" /></clipPath><clipPath
       clipPathUnits="userSpaceOnUse"
       id="clipPath500"><path
         d="M 0,0 H 376 V 376 H 0 Z"
         id="path498" /></clipPath><clipPath
       clipPathUnits="userSpaceOnUse"
       id="clipPath514"><path
         d="M 0,0 H 376 V 376 H 0 Z"
         id="path512" /></clipPath><clipPath
       clipPathUnits="userSpaceOnUse"
       id="clipPath530"><path
         d="M 0,0 H 376 V 376 H 0 Z"
         id="path528" /></clipPath><clipPath
       clipPathUnits="userSpaceOnUse"
       id="clipPath544"><path
         d="M 0,0 H 376 V 376 H 0 Z"
         id="path542" /></clipPath><clipPath
       clipPathUnits="userSpaceOnUse"
       id="clipPath560"><path
         d="M 0,0 H 376 V 376 H 0 Z"
         id="path558" /></clipPath><clipPath
       clipPathUnits="userSpaceOnUse"
       id="clipPath576"><path
         d="M 0,0 H 376 V 376 H 0 Z"
         id="path574" /></clipPath><clipPath
       clipPathUnits="userSpaceOnUse"
       id="clipPath592"><path
         d="M 0,0 H 376 V 376 H 0 Z"
         id="path590" /></clipPath><clipPath
       clipPathUnits="userSpaceOnUse"
       id="clipPath608"><path
         d="M 0,0 H 376 V 376 H 0 Z"
         id="path606" /></clipPath><clipPath
       clipPathUnits="userSpaceOnUse"
       id="clipPath624"><path
         d="M 0,0 H 376 V 376 H 0 Z"
         id="path622" /></clipPath><clipPath
       clipPathUnits="userSpaceOnUse"
       id="clipPath640"><path
         d="M 0,0 H 376 V 376 H 0 Z"
         id="path638" /></clipPath></defs><g
     id="g10"
     transform="matrix(1.3333333,0,0,1.3333333,0,1.25e-5)"><g
       id="g12" /><g
       id="g14"><g
         id="g16"
         clip-path="url(#clipPath20)"><g
           id="g22"><g
             id="g24"><g
               id="g26"
               clip-path="url(#clipPath30)"><g
                 id="g32"><path
                   d="M 5.621,3.746 H 365.598 V 371.945 H 5.621 Z"
                   style="fill:#ffffff;fill-opacity:1;fill-rule:nonzero;stroke:none"
                   id="path34" /></g></g></g></g></g></g><g
       id="g36"><g
         id="g38"
         clip-path="url(#clipPath42)"><g
           id="g44"><g
             id="g46"><g
               id="g48"
               clip-path="url(#clipPath52)"><g
                 id="g54"><g
                   id="g56"><path
                     d="M 9.535,7.66 H 361.871 V 368.387 H 9.535 Z"
                     style="fill:none;stroke:#000000;stroke-width:0.391484;stroke-linecap:square;stroke-linejoin:miter;stroke-miterlimit:10;stroke-dasharray:none;stroke-opacity:1"
                     id="path58" /></g></g></g></g></g><g
           id="g60"><g
             id="g62"><g
               id="g64"
               clip-path="url(#clipPath68)"><g
                 id="g70"><g
                   id="g72"><path
                     d="M 24.938,8.055 V 13.57"
                     style="fill:none;stroke:#000000;stroke-width:0.391484;stroke-linecap:square;stroke-linejoin:miter;stroke-miterlimit:10;stroke-dasharray:none;stroke-opacity:1"
                     id="path74" /></g></g></g></g></g><g
           id="g76"><g
             id="g78"><g
               id="g80"
               clip-path="url(#clipPath84)"><g
                 id="g86"><g
                   id="g88"><path
                     d="m 24.938,13.57 -3.915,3.914"
                     style="fill:none;stroke:#000000;stroke-width:0.391484;stroke-linecap:square;stroke-linejoin:miter;stroke-miterlimit:10;stroke-dasharray:none;stroke-opacity:1"
                     id="path90" /></g></g></g></g></g><g
           id="g92"><g
             id="g94"><g
               id="g96"
               clip-path="url(#clipPath100)"><g
                 id="g102"><g
                   id="g104"><path
                     d="M 21.023,17.484 H 9.535"
                     style="fill:none;stroke:#000000;stroke-width:0.391484;stroke-linecap:square;stroke-linejoin:miter;stroke-miterlimit:10;stroke-dasharray:none;stroke-opacity:1"
                     id="path106" /></g></g></g></g></g><g
           id="g108"><g
             id="g110"><g
               id="g112"
               clip-path="url(#clipPath116)"><g
                 id="g118"><path
                   d="M 15.387,14.707 V 14.34 c -0.086,0.133 -0.199,0.234 -0.348,0.312 -0.141,0.075 -0.297,0.11 -0.457,0.11 -0.164,0 -0.312,-0.035 -0.441,-0.102 -0.129,-0.074 -0.223,-0.176 -0.282,-0.308 -0.058,-0.129 -0.086,-0.309 -0.086,-0.536 v -1.543 h 0.641 v 1.118 c 0,0.343 0.016,0.554 0.039,0.632 0.024,0.079 0.067,0.137 0.129,0.184 0.063,0.043 0.145,0.066 0.238,0.066 0.11,0 0.207,-0.031 0.293,-0.093 0.09,-0.059 0.153,-0.133 0.184,-0.223 0.031,-0.09 0.047,-0.309 0.047,-0.656 v -1.028 h 0.644 v 2.434 z m 3.39,-1.719 -0.629,0.117 c -0.023,-0.125 -0.074,-0.218 -0.152,-0.281 -0.074,-0.066 -0.172,-0.097 -0.289,-0.097 -0.164,0 -0.293,0.054 -0.391,0.164 -0.093,0.109 -0.14,0.297 -0.14,0.558 0,0.289 0.047,0.492 0.144,0.61 0.098,0.117 0.231,0.179 0.395,0.179 0.121,0 0.223,-0.035 0.297,-0.105 0.078,-0.07 0.133,-0.192 0.168,-0.36 l 0.636,0.11 c -0.066,0.289 -0.195,0.508 -0.382,0.66 -0.188,0.145 -0.438,0.219 -0.75,0.219 -0.356,0 -0.641,-0.11 -0.852,-0.336 -0.211,-0.223 -0.316,-0.535 -0.316,-0.934 0,-0.402 0.105,-0.715 0.316,-0.937 0.211,-0.223 0.5,-0.336 0.863,-0.336 0.297,0 0.535,0.062 0.711,0.187 0.172,0.129 0.297,0.321 0.371,0.582 z"
                   style="fill:#000000;fill-opacity:1;fill-rule:nonzero;stroke:none"
                   id="path120" /></g></g></g></g><g
           id="g122"><g
             id="g124"><g
               id="g126"
               clip-path="url(#clipPath130)"><g
                 id="g132"><path
                   d="m 60.535,155.508 c 0,1.945 -1.578,3.523 -3.523,3.523 -1.946,0 -3.524,-1.578 -3.524,-3.523 0,-1.945 1.578,-3.524 3.524,-3.524 1.945,0 3.523,1.579 3.523,3.524 z"
                   style="fill:#ffffcc;fill-opacity:1;fill-rule:nonzero;stroke:none"
                   id="path134" /></g></g></g></g><g
           id="g136"><g
             id="g138"><g
               id="g140"
               clip-path="url(#clipPath144)"><g
                 id="g146"><g
                   id="g148"><path
                     d="m 60.535,155.508 c 0,1.945 -1.578,3.523 -3.523,3.523 -1.946,0 -3.524,-1.578 -3.524,-3.523 0,-1.945 1.578,-3.524 3.524,-3.524 1.945,0 3.523,1.579 3.523,3.524 z"
                     style="fill:none;stroke:#000000;stroke-width:0.782968;stroke-linecap:square;stroke-linejoin:miter;stroke-miterlimit:10;stroke-dasharray:none;stroke-opacity:1"
                     id="path150" /></g></g></g></g></g><g
           id="g152"><g
             id="g154"><g
               id="g156"
               clip-path="url(#clipPath160)"><g
                 id="g162"><g
                   id="g164"><path
                     d="m 57.051,159.031 v 7.047"
                     style="fill:none;stroke:#000000;stroke-width:0.782968;stroke-linecap:square;stroke-linejoin:miter;stroke-miterlimit:10;stroke-dasharray:none;stroke-opacity:1"
                     id="path166" /></g></g></g></g></g><g
           id="g168"><g
             id="g170"><g
               id="g172"
               clip-path="url(#clipPath176)"><g
                 id="g178"><g
                   id="g180"><path
                     d="M 51.566,161.676 H 62.531"
                     style="fill:none;stroke:#000000;stroke-width:0.782968;stroke-linecap:square;stroke-linejoin:miter;stroke-miterlimit:10;stroke-dasharray:none;stroke-opacity:1"
                     id="path182" /></g></g></g></g></g><g
           id="g184"><g
             id="g186"><g
               id="g188"
               clip-path="url(#clipPath192)"><g
                 id="g194"><g
                   id="g196"><path
                     d="m 57.051,166.078 -5.485,7.438"
                     style="fill:none;stroke:#000000;stroke-width:0.782968;stroke-linecap:square;stroke-linejoin:miter;stroke-miterlimit:10;stroke-dasharray:none;stroke-opacity:1"
                     id="path198" /></g></g></g></g></g><g
           id="g200"><g
             id="g202"><g
               id="g204"
               clip-path="url(#clipPath208)"><g
                 id="g210"><g
                   id="g212"><path
                     d="m 57.051,166.078 5.48,7.438"
                     style="fill:none;stroke:#000000;stroke-width:0.782968;stroke-linecap:square;stroke-linejoin:miter;stroke-miterlimit:10;stroke-dasharray:none;stroke-opacity:1"
                     id="path214" /></g></g></g></g></g><g
           id="g216"><g
             id="g218"><g
               id="g220"
               clip-path="url(#clipPath224)"><g
                 id="g226"><path
                   d="m 44.375,178.605 h -0.742 l -0.293,-0.761 h -1.348 l -0.273,0.761 h -0.723 l 1.309,-3.363 h 0.722 z m -1.254,-1.332 -0.461,-1.25 -0.457,1.25 z m 3.836,1.332 h -0.594 v -0.359 c -0.101,0.141 -0.218,0.25 -0.351,0.317 -0.137,0.066 -0.274,0.097 -0.41,0.097 -0.282,0 -0.524,-0.109 -0.723,-0.336 -0.195,-0.226 -0.293,-0.543 -0.293,-0.945 0,-0.414 0.094,-0.727 0.285,-0.938 0.195,-0.214 0.445,-0.324 0.742,-0.324 0.27,0 0.504,0.113 0.703,0.336 v -1.211 h 0.641 z m -1.719,-1.269 c 0,0.258 0.039,0.445 0.11,0.562 0.105,0.168 0.25,0.254 0.437,0.254 0.145,0 0.27,-0.062 0.371,-0.187 0.106,-0.125 0.16,-0.317 0.16,-0.57 0,-0.278 -0.05,-0.477 -0.152,-0.598 -0.098,-0.129 -0.226,-0.192 -0.387,-0.192 -0.152,0 -0.277,0.063 -0.386,0.184 -0.102,0.125 -0.153,0.305 -0.153,0.547 z m 2.309,-1.164 h 0.594 v 0.332 c 0.214,-0.258 0.468,-0.387 0.761,-0.387 0.157,0 0.293,0.031 0.407,0.098 0.113,0.062 0.207,0.156 0.281,0.289 0.105,-0.133 0.219,-0.227 0.344,-0.289 0.125,-0.067 0.257,-0.098 0.402,-0.098 0.176,0 0.324,0.035 0.445,0.11 0.129,0.07 0.223,0.175 0.282,0.32 0.046,0.101 0.066,0.266 0.066,0.5 v 1.558 h -0.641 v -1.394 c 0,-0.238 -0.023,-0.395 -0.066,-0.465 -0.063,-0.094 -0.152,-0.141 -0.277,-0.141 -0.09,0 -0.176,0.032 -0.254,0.086 -0.078,0.055 -0.137,0.133 -0.172,0.239 -0.039,0.105 -0.055,0.277 -0.055,0.508 v 1.167 H 49.02 v -1.332 c 0,-0.238 -0.012,-0.39 -0.036,-0.46 -0.019,-0.067 -0.054,-0.118 -0.105,-0.153 -0.047,-0.035 -0.113,-0.055 -0.195,-0.055 -0.098,0 -0.188,0.032 -0.27,0.086 -0.078,0.055 -0.133,0.133 -0.172,0.235 -0.031,0.097 -0.047,0.262 -0.047,0.492 v 1.187 h -0.648 z m 4.226,-0.332 v -0.598 h 0.649 v 0.598 z m 0,2.765 v -2.433 h 0.649 v 2.433 z m 3.52,0 h -0.645 v -1.242 c 0,-0.261 -0.011,-0.433 -0.043,-0.511 -0.023,-0.079 -0.066,-0.137 -0.132,-0.18 -0.063,-0.043 -0.137,-0.067 -0.219,-0.067 -0.117,0 -0.219,0.032 -0.309,0.094 -0.086,0.059 -0.144,0.141 -0.175,0.242 -0.036,0.102 -0.051,0.289 -0.051,0.563 v 1.101 H 53.07 v -2.433 h 0.602 v 0.355 c 0.211,-0.273 0.48,-0.41 0.805,-0.41 0.14,0 0.269,0.028 0.386,0.078 0.117,0.051 0.207,0.118 0.27,0.196 0.062,0.078 0.101,0.168 0.121,0.269 0.027,0.098 0.039,0.242 0.039,0.43 z m 0.652,-2.765 v -0.598 h 0.649 v 0.598 z m 0,2.765 v -2.433 h 0.649 v 2.433 z m 1.082,-0.695 0.649,-0.097 c 0.027,0.125 0.082,0.222 0.164,0.285 0.086,0.066 0.203,0.097 0.355,0.097 0.168,0 0.289,-0.027 0.371,-0.09 0.059,-0.046 0.086,-0.101 0.086,-0.171 0,-0.047 -0.011,-0.09 -0.043,-0.121 -0.031,-0.036 -0.101,-0.063 -0.214,-0.086 -0.52,-0.114 -0.852,-0.219 -0.989,-0.313 -0.191,-0.137 -0.289,-0.316 -0.289,-0.551 0,-0.211 0.082,-0.39 0.246,-0.531 0.168,-0.144 0.426,-0.215 0.778,-0.215 0.332,0 0.582,0.055 0.746,0.164 0.16,0.106 0.273,0.266 0.336,0.477 l -0.614,0.113 c -0.023,-0.094 -0.074,-0.168 -0.144,-0.215 -0.074,-0.054 -0.18,-0.082 -0.313,-0.082 -0.168,0 -0.289,0.028 -0.363,0.074 -0.047,0.036 -0.07,0.075 -0.07,0.129 0,0.051 0.019,0.09 0.058,0.121 0.059,0.043 0.258,0.102 0.602,0.18 0.344,0.078 0.586,0.172 0.723,0.285 0.132,0.117 0.199,0.274 0.199,0.481 0,0.222 -0.094,0.418 -0.281,0.578 -0.184,0.16 -0.457,0.238 -0.825,0.238 -0.332,0 -0.593,-0.066 -0.789,-0.199 -0.191,-0.137 -0.32,-0.32 -0.379,-0.551 z m 3.957,-1.738 v 0.516 h -0.441 v 0.976 c 0,0.199 0.004,0.316 0.012,0.348 0.008,0.035 0.027,0.062 0.058,0.086 0.032,0.023 0.067,0.031 0.11,0.031 0.058,0 0.144,-0.024 0.254,-0.066 l 0.058,0.5 c -0.148,0.066 -0.316,0.097 -0.508,0.097 -0.117,0 -0.218,-0.015 -0.312,-0.055 -0.094,-0.039 -0.164,-0.089 -0.211,-0.152 -0.039,-0.066 -0.07,-0.148 -0.09,-0.25 -0.012,-0.078 -0.019,-0.23 -0.019,-0.461 v -1.054 h -0.293 v -0.516 h 0.293 v -0.484 l 0.648,-0.379 v 0.863 z m 1.063,2.433 h -0.641 v -2.433 h 0.598 v 0.344 c 0.101,-0.164 0.195,-0.27 0.277,-0.321 0.078,-0.05 0.172,-0.078 0.274,-0.078 0.148,0 0.289,0.039 0.429,0.121 l -0.203,0.559 c -0.109,-0.07 -0.211,-0.106 -0.301,-0.106 -0.093,0 -0.171,0.028 -0.23,0.082 -0.062,0.047 -0.109,0.137 -0.148,0.266 -0.036,0.129 -0.055,0.399 -0.055,0.816 z m 1.695,-1.691 -0.59,-0.105 c 0.067,-0.239 0.18,-0.411 0.336,-0.52 0.164,-0.113 0.407,-0.172 0.723,-0.172 0.285,0 0.5,0.035 0.637,0.106 0.144,0.062 0.242,0.148 0.3,0.254 0.055,0.101 0.086,0.296 0.086,0.578 l -0.007,0.75 c 0,0.215 0.011,0.375 0.031,0.476 0.019,0.098 0.058,0.207 0.117,0.324 h -0.637 c -0.015,-0.042 -0.035,-0.105 -0.062,-0.187 -0.012,-0.043 -0.02,-0.066 -0.024,-0.082 -0.109,0.113 -0.226,0.191 -0.355,0.246 -0.121,0.055 -0.254,0.078 -0.399,0.078 -0.25,0 -0.449,-0.066 -0.597,-0.199 -0.145,-0.141 -0.215,-0.313 -0.215,-0.52 0,-0.14 0.031,-0.261 0.098,-0.367 0.07,-0.109 0.164,-0.187 0.281,-0.246 0.117,-0.062 0.289,-0.113 0.515,-0.152 0.297,-0.059 0.504,-0.11 0.622,-0.16 v -0.063 c 0,-0.125 -0.028,-0.215 -0.09,-0.265 -0.063,-0.055 -0.176,-0.083 -0.348,-0.083 -0.117,0 -0.203,0.024 -0.269,0.067 -0.063,0.047 -0.114,0.125 -0.153,0.242 z m 0.86,0.524 c -0.079,0.023 -0.211,0.058 -0.391,0.097 -0.18,0.039 -0.297,0.074 -0.356,0.11 -0.078,0.062 -0.121,0.136 -0.121,0.226 0,0.09 0.032,0.172 0.098,0.238 0.07,0.067 0.156,0.102 0.258,0.102 0.117,0 0.23,-0.039 0.336,-0.117 0.078,-0.059 0.129,-0.129 0.152,-0.215 0.016,-0.055 0.024,-0.156 0.024,-0.313 z m 3.5,1.167 h -0.594 v -0.359 c -0.102,0.141 -0.219,0.25 -0.352,0.317 -0.136,0.066 -0.273,0.097 -0.41,0.097 -0.281,0 -0.523,-0.109 -0.723,-0.336 -0.195,-0.226 -0.293,-0.543 -0.293,-0.945 0,-0.414 0.094,-0.727 0.286,-0.938 0.199,-0.214 0.445,-0.324 0.742,-0.324 0.269,0 0.504,0.113 0.703,0.336 v -1.211 h 0.641 z m -1.719,-1.269 c 0,0.258 0.039,0.445 0.113,0.562 0.102,0.168 0.246,0.254 0.434,0.254 0.144,0 0.269,-0.062 0.371,-0.187 0.105,-0.125 0.16,-0.317 0.16,-0.57 0,-0.278 -0.051,-0.477 -0.152,-0.598 -0.098,-0.129 -0.227,-0.192 -0.387,-0.192 -0.149,0 -0.277,0.063 -0.383,0.184 -0.105,0.125 -0.156,0.305 -0.156,0.547 z m 2.211,0.016 c 0,-0.211 0.051,-0.418 0.16,-0.618 0.105,-0.203 0.254,-0.355 0.445,-0.457 0.192,-0.105 0.406,-0.16 0.649,-0.16 0.367,0 0.668,0.121 0.906,0.36 0.234,0.238 0.351,0.539 0.351,0.906 0,0.367 -0.117,0.672 -0.359,0.918 -0.234,0.242 -0.535,0.359 -0.894,0.359 -0.223,0 -0.438,-0.051 -0.641,-0.152 -0.199,-0.102 -0.352,-0.246 -0.457,-0.442 -0.109,-0.195 -0.16,-0.433 -0.16,-0.714 z m 0.66,0.039 c 0,0.238 0.059,0.425 0.172,0.554 0.113,0.129 0.254,0.192 0.422,0.192 0.172,0 0.312,-0.063 0.422,-0.192 0.113,-0.129 0.171,-0.316 0.171,-0.562 0,-0.235 -0.058,-0.418 -0.171,-0.543 -0.11,-0.133 -0.25,-0.195 -0.422,-0.195 -0.168,0 -0.309,0.062 -0.422,0.195 -0.113,0.125 -0.172,0.308 -0.172,0.551 z m 2.973,1.214 h -0.641 v -2.433 h 0.598 v 0.344 c 0.101,-0.164 0.195,-0.27 0.277,-0.321 0.082,-0.05 0.172,-0.078 0.273,-0.078 0.149,0 0.289,0.039 0.43,0.121 l -0.203,0.559 c -0.109,-0.07 -0.211,-0.106 -0.301,-0.106 -0.094,0 -0.168,0.028 -0.23,0.082 -0.063,0.047 -0.11,0.137 -0.149,0.266 -0.035,0.129 -0.054,0.399 -0.054,0.816 z"
                   style="fill:#000000;fill-opacity:1;fill-rule:nonzero;stroke:none"
                   id="path228" /></g></g></g></g><g
           id="g230"><g
             id="g232"><g
               id="g234"
               clip-path="url(#clipPath238)"><g
                 id="g240"><path
                   d="m 288.082,70.465 c 0,4.324 -12.269,7.828 -27.402,7.828 -15.137,0 -27.407,-3.504 -27.407,-7.828 0,-4.324 12.27,-7.832 27.407,-7.832 15.133,0 27.402,3.508 27.402,7.832 z"
                   style="fill:#ffffcc;fill-opacity:1;fill-rule:nonzero;stroke:none"
                   id="path242" /></g></g></g></g><g
           id="g244"><g
             id="g246"><g
               id="g248"
               clip-path="url(#clipPath252)"><g
                 id="g254"><g
                   id="g256"><path
                     d="m 288.082,70.465 c 0,4.324 -12.269,7.828 -27.402,7.828 -15.137,0 -27.407,-3.504 -27.407,-7.828 0,-4.324 12.27,-7.832 27.407,-7.832 15.133,0 27.402,3.508 27.402,7.832 z"
                     style="fill:none;stroke:#000000;stroke-width:0.782968;stroke-linecap:square;stroke-linejoin:miter;stroke-miterlimit:10;stroke-dasharray:none;stroke-opacity:1"
                     id="path258" /></g></g></g></g></g><g
           id="g260"><g
             id="g262"><g
               id="g264"
               clip-path="url(#clipPath268)"><g
                 id="g270"><path
                   d="m 242.617,72.23 v -3.363 h 2.496 v 0.571 h -1.816 v 0.746 h 1.687 v 0.566 h -1.687 v 0.914 h 1.875 v 0.566 z m 3.125,0 v -3.363 h 0.649 v 3.363 z m 1.309,-2.761 v -0.602 h 0.648 v 0.602 z m 0,2.761 v -2.433 h 0.648 v 2.433 z m 1.254,-2.433 h 0.593 v 0.332 c 0.215,-0.258 0.473,-0.387 0.766,-0.387 0.152,0 0.289,0.031 0.402,0.098 0.114,0.062 0.207,0.156 0.282,0.289 0.105,-0.133 0.222,-0.227 0.343,-0.289 0.125,-0.067 0.262,-0.098 0.403,-0.098 0.176,0 0.324,0.035 0.449,0.11 0.125,0.07 0.219,0.175 0.281,0.32 0.043,0.101 0.067,0.269 0.067,0.5 v 1.558 h -0.645 v -1.394 c 0,-0.238 -0.019,-0.395 -0.066,-0.465 -0.063,-0.094 -0.153,-0.141 -0.274,-0.141 -0.09,0 -0.176,0.032 -0.258,0.086 -0.078,0.055 -0.136,0.133 -0.171,0.239 -0.036,0.105 -0.055,0.277 -0.055,0.508 v 1.167 h -0.641 v -1.332 c 0,-0.238 -0.015,-0.39 -0.039,-0.457 -0.019,-0.07 -0.054,-0.121 -0.101,-0.156 -0.051,-0.035 -0.118,-0.055 -0.2,-0.055 -0.097,0 -0.187,0.032 -0.265,0.086 -0.078,0.055 -0.137,0.133 -0.172,0.235 -0.035,0.097 -0.051,0.262 -0.051,0.496 v 1.183 h -0.648 z m 4.226,-0.328 v -0.602 h 0.649 v 0.602 z m 0,2.761 v -2.433 h 0.649 v 2.433 z m 3.52,0 h -0.641 v -1.242 c 0,-0.261 -0.015,-0.433 -0.043,-0.511 -0.027,-0.079 -0.07,-0.137 -0.137,-0.176 -0.058,-0.047 -0.132,-0.071 -0.218,-0.071 -0.114,0 -0.219,0.032 -0.305,0.094 -0.086,0.059 -0.148,0.141 -0.18,0.242 -0.031,0.106 -0.047,0.293 -0.047,0.563 v 1.101 h -0.648 v -2.433 h 0.598 v 0.355 c 0.211,-0.273 0.48,-0.41 0.808,-0.41 0.137,0 0.266,0.028 0.383,0.078 0.121,0.051 0.211,0.118 0.27,0.196 0.062,0.078 0.101,0.168 0.125,0.269 0.023,0.098 0.035,0.242 0.035,0.43 z m 1.137,-1.691 -0.586,-0.105 c 0.066,-0.239 0.179,-0.411 0.336,-0.52 0.164,-0.113 0.406,-0.172 0.722,-0.172 0.285,0 0.496,0.035 0.637,0.106 0.141,0.062 0.242,0.148 0.301,0.254 0.054,0.105 0.086,0.296 0.086,0.578 l -0.008,0.75 c 0,0.218 0.012,0.375 0.031,0.476 0.02,0.098 0.059,0.207 0.117,0.324 h -0.636 c -0.016,-0.042 -0.04,-0.105 -0.063,-0.187 -0.012,-0.043 -0.02,-0.066 -0.023,-0.082 -0.11,0.113 -0.231,0.195 -0.356,0.246 -0.121,0.055 -0.254,0.078 -0.398,0.078 -0.254,0 -0.453,-0.066 -0.598,-0.199 -0.145,-0.141 -0.215,-0.313 -0.215,-0.52 0,-0.14 0.031,-0.261 0.098,-0.367 0.07,-0.105 0.164,-0.187 0.281,-0.246 0.117,-0.062 0.289,-0.113 0.516,-0.152 0.297,-0.059 0.504,-0.11 0.621,-0.16 v -0.059 c 0,-0.129 -0.031,-0.219 -0.09,-0.269 -0.063,-0.055 -0.18,-0.083 -0.348,-0.083 -0.117,0 -0.207,0.024 -0.269,0.071 -0.063,0.043 -0.114,0.121 -0.156,0.238 z m 0.863,0.524 c -0.082,0.027 -0.211,0.058 -0.391,0.097 -0.18,0.039 -0.297,0.074 -0.355,0.113 -0.082,0.059 -0.121,0.133 -0.121,0.223 0,0.09 0.031,0.172 0.097,0.242 0.071,0.063 0.157,0.098 0.258,0.098 0.117,0 0.231,-0.039 0.336,-0.117 0.078,-0.059 0.129,-0.129 0.152,-0.215 0.016,-0.055 0.024,-0.156 0.024,-0.313 z m 1.887,1.167 h -0.645 v -2.433 h 0.602 v 0.344 c 0.101,-0.164 0.191,-0.27 0.273,-0.321 0.082,-0.05 0.176,-0.078 0.277,-0.078 0.145,0 0.289,0.039 0.426,0.121 l -0.199,0.559 c -0.109,-0.07 -0.211,-0.106 -0.301,-0.106 -0.094,0 -0.172,0.028 -0.234,0.082 -0.059,0.047 -0.11,0.137 -0.145,0.266 -0.039,0.129 -0.054,0.399 -0.054,0.816 z m 4.117,0 v -0.367 c -0.086,0.133 -0.203,0.235 -0.348,0.313 -0.144,0.074 -0.297,0.109 -0.461,0.109 -0.16,0 -0.308,-0.031 -0.437,-0.101 -0.133,-0.075 -0.227,-0.176 -0.282,-0.305 -0.058,-0.133 -0.086,-0.313 -0.086,-0.539 v -1.543 h 0.641 v 1.121 c 0,0.34 0.012,0.551 0.035,0.629 0.028,0.078 0.071,0.137 0.129,0.183 0.067,0.043 0.145,0.067 0.238,0.067 0.114,0 0.211,-0.031 0.297,-0.09 0.09,-0.062 0.149,-0.137 0.184,-0.227 0.031,-0.089 0.047,-0.308 0.047,-0.656 v -1.027 h 0.644 v 2.433 z m 1.039,-0.695 0.648,-0.097 c 0.031,0.125 0.086,0.222 0.168,0.285 0.086,0.066 0.203,0.097 0.356,0.097 0.164,0 0.289,-0.027 0.371,-0.09 0.058,-0.046 0.086,-0.101 0.086,-0.171 0,-0.047 -0.016,-0.09 -0.043,-0.121 -0.032,-0.036 -0.106,-0.063 -0.215,-0.086 -0.52,-0.114 -0.852,-0.219 -0.988,-0.313 -0.196,-0.133 -0.289,-0.316 -0.289,-0.551 0,-0.211 0.082,-0.39 0.246,-0.531 0.164,-0.144 0.425,-0.215 0.773,-0.215 0.336,0 0.586,0.055 0.746,0.164 0.164,0.106 0.277,0.266 0.34,0.477 l -0.613,0.113 c -0.024,-0.094 -0.075,-0.168 -0.149,-0.215 -0.07,-0.054 -0.176,-0.082 -0.308,-0.082 -0.168,0 -0.289,0.028 -0.364,0.074 -0.046,0.036 -0.074,0.079 -0.074,0.129 0,0.051 0.024,0.09 0.063,0.121 0.058,0.043 0.257,0.102 0.601,0.18 0.344,0.078 0.586,0.172 0.719,0.285 0.137,0.117 0.203,0.274 0.203,0.481 0,0.222 -0.094,0.418 -0.281,0.578 -0.184,0.16 -0.461,0.238 -0.824,0.238 -0.332,0 -0.594,-0.066 -0.789,-0.199 -0.196,-0.137 -0.321,-0.32 -0.383,-0.551 z m 4.445,0.695 v -0.367 c -0.086,0.133 -0.203,0.235 -0.351,0.313 -0.141,0.074 -0.293,0.109 -0.458,0.109 -0.164,0 -0.312,-0.031 -0.441,-0.101 -0.129,-0.075 -0.223,-0.176 -0.281,-0.305 -0.059,-0.133 -0.086,-0.313 -0.086,-0.539 v -1.543 h 0.644 v 1.121 c 0,0.34 0.012,0.551 0.036,0.629 0.023,0.078 0.066,0.137 0.128,0.183 0.067,0.043 0.145,0.067 0.239,0.067 0.109,0 0.207,-0.031 0.293,-0.09 0.09,-0.062 0.152,-0.137 0.183,-0.227 0.032,-0.089 0.051,-0.308 0.051,-0.656 v -1.027 h 0.641 v 2.433 z m 1.75,-1.691 -0.59,-0.105 c 0.067,-0.239 0.18,-0.411 0.336,-0.52 0.164,-0.113 0.406,-0.172 0.723,-0.172 0.285,0 0.5,0.035 0.637,0.106 0.144,0.062 0.242,0.148 0.3,0.254 0.055,0.105 0.086,0.296 0.086,0.578 l -0.008,0.75 c 0,0.218 0.012,0.375 0.032,0.476 0.019,0.098 0.058,0.207 0.117,0.324 h -0.637 c -0.015,-0.042 -0.039,-0.105 -0.062,-0.187 -0.012,-0.043 -0.02,-0.066 -0.024,-0.082 -0.109,0.113 -0.23,0.195 -0.355,0.246 -0.121,0.055 -0.254,0.078 -0.399,0.078 -0.25,0 -0.453,-0.066 -0.597,-0.199 -0.145,-0.141 -0.215,-0.313 -0.215,-0.52 0,-0.14 0.031,-0.261 0.097,-0.367 0.071,-0.105 0.165,-0.187 0.282,-0.246 0.117,-0.062 0.289,-0.113 0.515,-0.152 0.297,-0.059 0.504,-0.11 0.621,-0.16 v -0.059 c 0,-0.129 -0.027,-0.219 -0.089,-0.269 -0.063,-0.055 -0.18,-0.083 -0.348,-0.083 -0.117,0 -0.207,0.024 -0.27,0.071 -0.062,0.043 -0.113,0.121 -0.152,0.238 z m 0.859,0.524 c -0.082,0.027 -0.21,0.058 -0.39,0.097 -0.18,0.039 -0.297,0.074 -0.356,0.113 -0.082,0.059 -0.121,0.133 -0.121,0.223 0,0.09 0.032,0.172 0.098,0.242 0.07,0.063 0.156,0.098 0.258,0.098 0.117,0 0.23,-0.039 0.336,-0.117 0.078,-0.059 0.129,-0.129 0.152,-0.215 0.016,-0.055 0.023,-0.156 0.023,-0.313 z m 1.887,1.167 h -0.644 v -2.433 h 0.601 v 0.344 c 0.102,-0.164 0.192,-0.27 0.274,-0.321 0.082,-0.05 0.175,-0.078 0.277,-0.078 0.145,0 0.289,0.039 0.426,0.121 l -0.199,0.559 c -0.11,-0.07 -0.211,-0.106 -0.301,-0.106 -0.094,0 -0.172,0.028 -0.231,0.082 -0.062,0.047 -0.113,0.137 -0.148,0.266 -0.035,0.129 -0.055,0.399 -0.055,0.816 z m 1.211,-2.761 v -0.602 h 0.649 v 0.602 z m 0,2.761 v -2.433 h 0.649 v 2.433 z m 1.156,-1.253 c 0,-0.211 0.055,-0.418 0.161,-0.618 0.105,-0.203 0.253,-0.355 0.445,-0.457 0.191,-0.105 0.41,-0.16 0.648,-0.16 0.367,0 0.672,0.121 0.907,0.36 0.238,0.238 0.355,0.539 0.355,0.906 0,0.367 -0.121,0.672 -0.363,0.918 -0.235,0.242 -0.532,0.359 -0.891,0.359 -0.226,0 -0.437,-0.051 -0.644,-0.152 -0.2,-0.102 -0.352,-0.246 -0.457,-0.438 -0.106,-0.199 -0.161,-0.437 -0.161,-0.718 z m 0.661,0.039 c 0,0.238 0.058,0.425 0.171,0.554 0.114,0.129 0.254,0.192 0.422,0.192 0.172,0 0.313,-0.063 0.422,-0.192 0.117,-0.129 0.172,-0.316 0.172,-0.562 0,-0.235 -0.055,-0.418 -0.172,-0.543 -0.109,-0.133 -0.25,-0.195 -0.422,-0.195 -0.168,0 -0.308,0.062 -0.422,0.195 -0.113,0.125 -0.171,0.308 -0.171,0.551 z"
                   style="fill:#000000;fill-opacity:1;fill-rule:nonzero;stroke:none"
                   id="path272" /></g></g></g></g><g
           id="g274"><g
             id="g276"><g
               id="g278"
               clip-path="url(#clipPath282)"><g
                 id="g284"><path
                   d="m 288.016,107.957 c 0,4.613 -12.27,8.356 -27.403,8.356 -15.136,0 -27.402,-3.743 -27.402,-8.356 0,-4.617 12.266,-8.359 27.402,-8.359 15.133,0 27.403,3.742 27.403,8.359 z"
                   style="fill:#ffffcc;fill-opacity:1;fill-rule:nonzero;stroke:none"
                   id="path286" /></g></g></g></g><g
           id="g288"><g
             id="g290"><g
               id="g292"
               clip-path="url(#clipPath296)"><g
                 id="g298"><g
                   id="g300"><path
                     d="m 288.016,107.957 c 0,4.613 -12.27,8.356 -27.403,8.356 -15.136,0 -27.402,-3.743 -27.402,-8.356 0,-4.617 12.266,-8.359 27.402,-8.359 15.133,0 27.403,3.742 27.403,8.359 z"
                     style="fill:none;stroke:#000000;stroke-width:0.782968;stroke-linecap:square;stroke-linejoin:miter;stroke-miterlimit:10;stroke-dasharray:none;stroke-opacity:1"
                     id="path302" /></g></g></g></g></g><g
           id="g304"><g
             id="g306"><g
               id="g308"
               clip-path="url(#clipPath312)"><g
                 id="g314"><path
                   d="m 241.578,106.77 v -3.364 h 2.496 v 0.567 h -1.816 v 0.746 h 1.687 v 0.57 h -1.687 v 0.91 h 1.879 v 0.571 z m 3.129,0 v -3.364 h 0.648 v 3.364 z m 1.305,-2.766 v -0.598 h 0.648 v 0.598 z m 0,2.766 v -2.434 h 0.648 v 2.434 z m 1.254,-2.434 h 0.593 v 0.328 c 0.219,-0.254 0.473,-0.383 0.766,-0.383 0.156,0 0.289,0.032 0.402,0.098 0.114,0.059 0.211,0.156 0.282,0.285 0.105,-0.129 0.222,-0.226 0.343,-0.285 0.125,-0.066 0.262,-0.098 0.403,-0.098 0.175,0 0.324,0.035 0.449,0.11 0.125,0.07 0.219,0.175 0.281,0.316 0.043,0.102 0.067,0.27 0.067,0.504 v 1.559 h -0.645 v -1.395 c 0,-0.242 -0.019,-0.395 -0.066,-0.465 -0.059,-0.094 -0.153,-0.14 -0.274,-0.14 -0.09,0 -0.176,0.027 -0.258,0.085 -0.078,0.051 -0.132,0.133 -0.171,0.239 -0.036,0.105 -0.055,0.273 -0.055,0.508 v 1.168 h -0.641 v -1.332 c 0,-0.239 -0.012,-0.391 -0.039,-0.461 -0.019,-0.071 -0.055,-0.122 -0.101,-0.153 -0.051,-0.035 -0.118,-0.054 -0.196,-0.054 -0.101,0 -0.187,0.027 -0.269,0.085 -0.078,0.051 -0.137,0.129 -0.172,0.231 -0.035,0.098 -0.051,0.266 -0.051,0.496 v 1.188 h -0.648 z m 4.226,-0.332 v -0.598 h 0.649 v 0.598 z m 0,2.766 v -2.434 h 0.649 v 2.434 z m 3.52,0 h -0.641 v -1.243 c 0,-0.265 -0.016,-0.437 -0.043,-0.511 -0.027,-0.078 -0.07,-0.137 -0.137,-0.18 -0.058,-0.043 -0.132,-0.066 -0.218,-0.066 -0.114,0 -0.215,0.031 -0.305,0.089 -0.086,0.063 -0.145,0.145 -0.18,0.246 -0.031,0.102 -0.047,0.29 -0.047,0.563 v 1.102 h -0.648 v -2.434 h 0.598 v 0.355 c 0.211,-0.273 0.48,-0.41 0.808,-0.41 0.137,0 0.266,0.024 0.387,0.078 0.117,0.051 0.207,0.114 0.266,0.196 0.062,0.078 0.105,0.168 0.125,0.269 0.023,0.098 0.035,0.242 0.035,0.43 z m 1.14,-1.696 -0.589,-0.101 c 0.066,-0.239 0.179,-0.41 0.335,-0.52 0.165,-0.117 0.407,-0.172 0.723,-0.172 0.285,0 0.5,0.035 0.637,0.102 0.144,0.066 0.242,0.152 0.301,0.258 0.054,0.101 0.086,0.293 0.086,0.574 l -0.008,0.754 c 0,0.215 0.011,0.375 0.031,0.476 0.02,0.098 0.059,0.207 0.117,0.325 h -0.637 c -0.015,-0.043 -0.039,-0.11 -0.062,-0.192 -0.012,-0.039 -0.02,-0.066 -0.023,-0.078 -0.11,0.109 -0.231,0.191 -0.356,0.246 -0.121,0.051 -0.254,0.078 -0.398,0.078 -0.25,0 -0.454,-0.066 -0.598,-0.203 -0.145,-0.137 -0.215,-0.308 -0.215,-0.519 0,-0.137 0.031,-0.258 0.098,-0.368 0.07,-0.105 0.164,-0.187 0.281,-0.242 0.117,-0.062 0.289,-0.113 0.516,-0.152 0.297,-0.059 0.504,-0.113 0.621,-0.16 v -0.063 c 0,-0.125 -0.028,-0.215 -0.09,-0.269 -0.063,-0.051 -0.18,-0.078 -0.348,-0.078 -0.117,0 -0.207,0.023 -0.269,0.066 -0.063,0.047 -0.114,0.125 -0.153,0.238 z m 0.86,0.528 c -0.078,0.023 -0.211,0.058 -0.391,0.097 -0.18,0.035 -0.297,0.074 -0.355,0.11 -0.082,0.062 -0.121,0.136 -0.121,0.226 0,0.09 0.031,0.168 0.097,0.238 0.071,0.067 0.156,0.098 0.258,0.098 0.117,0 0.23,-0.039 0.336,-0.117 0.078,-0.055 0.129,-0.125 0.152,-0.211 0.016,-0.055 0.024,-0.16 0.024,-0.313 z m 1.886,1.168 h -0.644 v -2.434 h 0.601 v 0.34 c 0.102,-0.16 0.196,-0.266 0.274,-0.317 0.082,-0.054 0.176,-0.078 0.277,-0.078 0.145,0 0.289,0.039 0.426,0.121 l -0.199,0.555 c -0.11,-0.066 -0.211,-0.102 -0.301,-0.102 -0.094,0 -0.172,0.028 -0.23,0.079 -0.063,0.05 -0.114,0.14 -0.149,0.269 -0.035,0.125 -0.055,0.399 -0.055,0.813 z"
                   style="fill:#000000;fill-opacity:1;fill-rule:nonzero;stroke:none"
                   id="path316" /></g></g></g></g><g
           id="g318"><g
             id="g320"><g
               id="g322"
               clip-path="url(#clipPath326)"><g
                 id="g328"><path
                   d="m 241.555,110.242 h 0.597 v 0.356 c 0.082,-0.121 0.188,-0.219 0.321,-0.293 0.132,-0.078 0.281,-0.117 0.445,-0.117 0.281,0 0.52,0.113 0.715,0.332 0.199,0.218 0.301,0.531 0.301,0.929 0,0.403 -0.102,0.719 -0.301,0.949 -0.199,0.223 -0.442,0.336 -0.723,0.336 -0.133,0 -0.254,-0.027 -0.367,-0.082 -0.109,-0.05 -0.223,-0.144 -0.34,-0.273 v 1.23 h -0.648 z m 0.636,1.176 c 0,0.273 0.055,0.477 0.164,0.605 0.11,0.133 0.243,0.196 0.399,0.196 0.148,0 0.273,-0.059 0.371,-0.176 0.098,-0.121 0.148,-0.32 0.148,-0.594 0,-0.254 -0.05,-0.441 -0.152,-0.562 -0.105,-0.125 -0.23,-0.192 -0.383,-0.192 -0.156,0 -0.289,0.063 -0.394,0.184 -0.102,0.125 -0.153,0.305 -0.153,0.539 z m 3.852,1.262 v -0.367 c -0.086,0.128 -0.199,0.234 -0.348,0.312 -0.144,0.07 -0.297,0.109 -0.457,0.109 -0.164,0 -0.312,-0.035 -0.441,-0.105 -0.133,-0.074 -0.227,-0.176 -0.281,-0.305 -0.059,-0.133 -0.086,-0.308 -0.086,-0.539 v -1.543 h 0.64 v 1.121 c 0,0.344 0.012,0.551 0.039,0.629 0.024,0.078 0.067,0.141 0.129,0.184 0.063,0.047 0.145,0.07 0.239,0.07 0.109,0 0.207,-0.031 0.293,-0.094 0.089,-0.062 0.148,-0.136 0.183,-0.226 0.031,-0.09 0.047,-0.309 0.047,-0.653 v -1.031 h 0.645 v 2.438 z m 1.242,0 v -3.367 h 0.645 v 1.21 c 0.199,-0.222 0.433,-0.335 0.707,-0.335 0.297,0 0.539,0.109 0.734,0.324 0.195,0.215 0.297,0.519 0.297,0.926 0,0.414 -0.102,0.734 -0.301,0.96 -0.199,0.223 -0.441,0.336 -0.722,0.336 -0.137,0 -0.274,-0.035 -0.411,-0.105 -0.132,-0.07 -0.25,-0.172 -0.347,-0.313 v 0.364 z m 0.637,-1.274 c 0,0.254 0.043,0.442 0.125,0.563 0.109,0.172 0.258,0.258 0.445,0.258 0.137,0 0.258,-0.063 0.36,-0.184 0.101,-0.121 0.152,-0.316 0.152,-0.574 0,-0.278 -0.051,-0.481 -0.152,-0.602 -0.102,-0.125 -0.231,-0.187 -0.391,-0.187 -0.152,0 -0.277,0.058 -0.387,0.183 -0.101,0.117 -0.152,0.297 -0.152,0.543 z m 2.258,1.274 v -3.367 h 0.648 v 3.367 z m 1.304,-2.766 v -0.601 h 0.649 v 0.601 z m 0,2.766 v -2.438 h 0.649 v 2.438 z m 3.43,-1.719 -0.629,0.113 c -0.027,-0.125 -0.078,-0.219 -0.156,-0.281 -0.07,-0.063 -0.168,-0.098 -0.285,-0.098 -0.164,0 -0.293,0.055 -0.391,0.168 -0.094,0.11 -0.14,0.293 -0.14,0.555 0,0.289 0.046,0.492 0.144,0.613 0.098,0.117 0.231,0.176 0.391,0.176 0.125,0 0.222,-0.035 0.3,-0.102 0.079,-0.07 0.133,-0.191 0.165,-0.363 l 0.636,0.11 c -0.062,0.289 -0.191,0.511 -0.379,0.66 -0.187,0.148 -0.437,0.222 -0.75,0.222 -0.355,0 -0.64,-0.113 -0.851,-0.336 -0.211,-0.226 -0.321,-0.539 -0.321,-0.937 0,-0.398 0.11,-0.711 0.321,-0.938 0.211,-0.222 0.5,-0.335 0.863,-0.335 0.297,0 0.531,0.066 0.707,0.191 0.176,0.125 0.301,0.32 0.375,0.582 z m 0.973,0.023 -0.586,-0.105 c 0.062,-0.234 0.176,-0.41 0.336,-0.52 0.164,-0.113 0.402,-0.171 0.722,-0.171 0.286,0 0.496,0.035 0.637,0.105 0.141,0.066 0.242,0.152 0.297,0.258 0.059,0.101 0.086,0.293 0.086,0.574 l -0.004,0.754 c 0,0.215 0.008,0.375 0.027,0.476 0.024,0.098 0.063,0.204 0.118,0.325 h -0.637 c -0.016,-0.047 -0.035,-0.11 -0.059,-0.192 -0.011,-0.039 -0.023,-0.066 -0.027,-0.078 -0.109,0.11 -0.227,0.192 -0.352,0.242 -0.125,0.055 -0.257,0.082 -0.398,0.082 -0.254,0 -0.453,-0.066 -0.602,-0.203 -0.14,-0.136 -0.211,-0.312 -0.211,-0.519 0,-0.137 0.032,-0.262 0.098,-0.367 0.066,-0.106 0.16,-0.188 0.281,-0.247 0.117,-0.058 0.289,-0.109 0.512,-0.152 0.297,-0.055 0.508,-0.109 0.625,-0.156 v -0.063 c 0,-0.125 -0.031,-0.214 -0.094,-0.269 -0.058,-0.055 -0.176,-0.078 -0.347,-0.078 -0.114,0 -0.204,0.019 -0.27,0.066 -0.059,0.043 -0.109,0.125 -0.152,0.238 z m 0.863,0.528 c -0.082,0.023 -0.211,0.054 -0.391,0.097 -0.179,0.036 -0.3,0.071 -0.355,0.11 -0.082,0.062 -0.121,0.136 -0.121,0.226 0,0.09 0.031,0.168 0.097,0.239 0.067,0.066 0.153,0.097 0.254,0.097 0.121,0 0.231,-0.039 0.336,-0.117 0.078,-0.055 0.129,-0.129 0.157,-0.215 0.015,-0.051 0.023,-0.156 0.023,-0.312 z m 3.391,-0.551 -0.633,0.113 c -0.024,-0.125 -0.074,-0.219 -0.153,-0.281 -0.074,-0.063 -0.167,-0.098 -0.285,-0.098 -0.164,0 -0.297,0.055 -0.394,0.168 -0.094,0.11 -0.141,0.293 -0.141,0.555 0,0.289 0.051,0.492 0.149,0.613 0.097,0.117 0.226,0.176 0.39,0.176 0.121,0 0.223,-0.035 0.301,-0.102 0.078,-0.07 0.133,-0.191 0.164,-0.363 l 0.637,0.11 c -0.067,0.289 -0.192,0.511 -0.379,0.66 -0.188,0.148 -0.438,0.222 -0.754,0.222 -0.355,0 -0.637,-0.113 -0.848,-0.336 -0.215,-0.226 -0.32,-0.539 -0.32,-0.937 0,-0.398 0.105,-0.711 0.32,-0.938 0.211,-0.222 0.5,-0.335 0.86,-0.335 0.3,0 0.535,0.066 0.711,0.191 0.175,0.125 0.3,0.32 0.375,0.582 z m 0.488,-1.047 v -0.601 h 0.648 v 0.601 z m 0,2.766 v -2.438 h 0.648 v 2.438 z m 1.16,-1.254 c 0,-0.215 0.051,-0.418 0.156,-0.617 0.106,-0.207 0.258,-0.36 0.45,-0.461 0.191,-0.106 0.406,-0.16 0.648,-0.16 0.367,0 0.668,0.121 0.902,0.363 0.239,0.234 0.356,0.539 0.356,0.906 0,0.363 -0.121,0.672 -0.36,0.914 -0.238,0.242 -0.535,0.363 -0.894,0.363 -0.223,0 -0.438,-0.05 -0.641,-0.152 -0.199,-0.102 -0.355,-0.25 -0.461,-0.441 -0.105,-0.196 -0.156,-0.434 -0.156,-0.715 z m 0.66,0.035 c 0,0.242 0.055,0.426 0.172,0.559 0.113,0.125 0.254,0.187 0.422,0.187 0.168,0 0.309,-0.062 0.422,-0.187 0.113,-0.133 0.172,-0.321 0.172,-0.563 0,-0.238 -0.059,-0.418 -0.172,-0.547 -0.113,-0.129 -0.254,-0.195 -0.422,-0.195 -0.168,0 -0.309,0.066 -0.422,0.195 -0.117,0.129 -0.172,0.309 -0.172,0.551 z m 0.36,-1.516 0.32,-0.687 h 0.719 l -0.629,0.687 z m 4.211,2.735 h -0.645 v -1.242 c 0,-0.266 -0.012,-0.438 -0.043,-0.516 -0.023,-0.078 -0.066,-0.137 -0.133,-0.176 -0.062,-0.047 -0.136,-0.066 -0.222,-0.066 -0.114,0 -0.215,0.027 -0.305,0.09 -0.086,0.062 -0.145,0.144 -0.176,0.246 -0.035,0.101 -0.051,0.289 -0.051,0.562 v 1.102 h -0.648 v -2.438 h 0.601 v 0.356 c 0.211,-0.274 0.481,-0.41 0.805,-0.41 0.141,0 0.27,0.027 0.387,0.082 0.117,0.046 0.207,0.113 0.269,0.195 0.063,0.078 0.102,0.168 0.121,0.269 0.028,0.098 0.04,0.239 0.04,0.426 z"
                   style="fill:#000000;fill-opacity:1;fill-rule:nonzero;stroke:none"
                   id="path330" /></g></g></g></g><g
           id="g332"><g
             id="g334"><g
               id="g336"
               clip-path="url(#clipPath340)"><g
                 id="g342"><path
                   d="m 302.188,157.914 c 0,5.945 -15.372,10.766 -34.329,10.766 -18.961,0 -34.328,-4.821 -34.328,-10.766 0,-5.945 15.367,-10.766 34.328,-10.766 18.957,0 34.329,4.821 34.329,10.766 z"
                   style="fill:#ffffcc;fill-opacity:1;fill-rule:nonzero;stroke:none"
                   id="path344" /></g></g></g></g><g
           id="g346"><g
             id="g348"><g
               id="g350"
               clip-path="url(#clipPath354)"><g
                 id="g356"><g
                   id="g358"><path
                     d="m 302.188,157.914 c 0,5.945 -15.372,10.766 -34.329,10.766 -18.961,0 -34.328,-4.821 -34.328,-10.766 0,-5.945 15.367,-10.766 34.328,-10.766 18.957,0 34.329,4.821 34.329,10.766 z"
                     style="fill:none;stroke:#000000;stroke-width:0.782968;stroke-linecap:square;stroke-linejoin:miter;stroke-miterlimit:10;stroke-dasharray:none;stroke-opacity:1"
                     id="path360" /></g></g></g></g></g><g
           id="g362"><g
             id="g364"><g
               id="g366"
               clip-path="url(#clipPath370)"><g
                 id="g372"><path
                   d="m 248.621,159.684 v -3.368 h 2.496 v 0.571 h -1.816 v 0.746 h 1.687 v 0.57 h -1.687 v 0.91 h 1.879 v 0.571 z m 3.129,0 v -3.368 h 0.648 v 3.368 z m 1.305,-2.766 v -0.602 h 0.648 v 0.602 z m 0,2.766 v -2.438 h 0.648 v 2.438 z m 1.258,-2.438 h 0.593 v 0.332 c 0.215,-0.258 0.469,-0.387 0.762,-0.387 0.156,0 0.289,0.036 0.406,0.098 0.114,0.063 0.207,0.16 0.281,0.289 0.106,-0.129 0.219,-0.226 0.34,-0.289 0.129,-0.062 0.262,-0.098 0.407,-0.098 0.175,0 0.324,0.039 0.445,0.114 0.125,0.066 0.219,0.172 0.281,0.316 0.043,0.102 0.067,0.27 0.067,0.5 v 1.563 h -0.641 v -1.395 c 0,-0.242 -0.024,-0.398 -0.066,-0.465 -0.063,-0.094 -0.157,-0.14 -0.278,-0.14 -0.09,0 -0.176,0.027 -0.258,0.086 -0.074,0.05 -0.132,0.128 -0.168,0.238 -0.039,0.105 -0.058,0.273 -0.058,0.508 v 1.168 h -0.641 v -1.336 c 0,-0.235 -0.012,-0.387 -0.035,-0.457 -0.023,-0.071 -0.055,-0.121 -0.105,-0.153 -0.051,-0.039 -0.114,-0.054 -0.196,-0.054 -0.097,0 -0.187,0.027 -0.269,0.086 -0.078,0.05 -0.133,0.128 -0.172,0.23 -0.031,0.098 -0.047,0.262 -0.047,0.496 v 1.188 h -0.648 z m 4.222,-0.328 v -0.602 h 0.649 v 0.602 z m 0,2.766 v -2.438 h 0.649 v 2.438 z m 3.52,0 h -0.641 v -1.243 c 0,-0.265 -0.016,-0.437 -0.043,-0.515 -0.023,-0.078 -0.07,-0.137 -0.133,-0.176 -0.062,-0.047 -0.136,-0.066 -0.222,-0.066 -0.114,0 -0.215,0.027 -0.305,0.089 -0.086,0.063 -0.145,0.145 -0.176,0.247 -0.035,0.101 -0.051,0.289 -0.051,0.562 v 1.102 h -0.648 v -2.438 h 0.598 v 0.356 c 0.214,-0.274 0.484,-0.411 0.808,-0.411 0.141,0 0.27,0.028 0.387,0.082 0.117,0.047 0.207,0.114 0.269,0.196 0.059,0.078 0.102,0.168 0.122,0.269 0.023,0.098 0.035,0.239 0.035,0.426 z m 1.14,-1.696 -0.586,-0.105 c 0.063,-0.235 0.176,-0.41 0.336,-0.52 0.16,-0.113 0.403,-0.172 0.723,-0.172 0.285,0 0.496,0.036 0.633,0.106 0.144,0.066 0.242,0.152 0.301,0.258 0.058,0.101 0.086,0.293 0.086,0.574 l -0.008,0.754 c 0,0.215 0.011,0.375 0.031,0.476 0.019,0.098 0.059,0.204 0.117,0.325 h -0.637 c -0.015,-0.047 -0.035,-0.11 -0.058,-0.192 -0.016,-0.039 -0.024,-0.066 -0.028,-0.078 -0.109,0.109 -0.226,0.191 -0.355,0.242 -0.121,0.055 -0.254,0.082 -0.395,0.082 -0.253,0 -0.453,-0.066 -0.601,-0.203 -0.141,-0.137 -0.215,-0.312 -0.215,-0.519 0,-0.137 0.035,-0.262 0.098,-0.368 0.07,-0.105 0.164,-0.187 0.281,-0.246 0.121,-0.058 0.293,-0.109 0.516,-0.152 0.296,-0.055 0.504,-0.109 0.625,-0.156 v -0.063 c 0,-0.125 -0.032,-0.215 -0.094,-0.269 -0.059,-0.055 -0.176,-0.078 -0.348,-0.078 -0.113,0 -0.203,0.019 -0.269,0.066 -0.063,0.043 -0.114,0.125 -0.153,0.238 z m 0.864,0.528 c -0.082,0.023 -0.215,0.054 -0.391,0.097 -0.18,0.035 -0.301,0.071 -0.355,0.11 -0.083,0.062 -0.125,0.136 -0.125,0.226 0,0.09 0.035,0.168 0.097,0.239 0.07,0.066 0.156,0.097 0.258,0.097 0.117,0 0.23,-0.039 0.336,-0.117 0.078,-0.055 0.129,-0.129 0.152,-0.215 0.02,-0.051 0.028,-0.156 0.028,-0.312 z m 1.882,1.168 h -0.64 v -2.438 h 0.597 v 0.344 c 0.102,-0.164 0.196,-0.27 0.278,-0.317 0.082,-0.054 0.172,-0.082 0.273,-0.082 0.149,0 0.289,0.043 0.43,0.125 l -0.203,0.555 c -0.11,-0.07 -0.211,-0.101 -0.301,-0.101 -0.094,0 -0.168,0.023 -0.23,0.078 -0.063,0.047 -0.11,0.136 -0.149,0.269 -0.035,0.125 -0.055,0.399 -0.055,0.813 z m 3,-1.696 -0.586,-0.105 c 0.063,-0.235 0.176,-0.41 0.336,-0.52 0.161,-0.113 0.403,-0.172 0.723,-0.172 0.285,0 0.496,0.036 0.633,0.106 0.144,0.066 0.242,0.152 0.301,0.258 0.058,0.101 0.086,0.293 0.086,0.574 l -0.008,0.754 c 0,0.215 0.012,0.375 0.031,0.476 0.023,0.098 0.059,0.204 0.117,0.325 h -0.636 c -0.016,-0.047 -0.036,-0.11 -0.059,-0.192 -0.016,-0.039 -0.024,-0.066 -0.027,-0.078 -0.11,0.109 -0.227,0.191 -0.356,0.242 -0.121,0.055 -0.254,0.082 -0.394,0.082 -0.254,0 -0.454,-0.066 -0.602,-0.203 -0.141,-0.137 -0.215,-0.312 -0.215,-0.519 0,-0.137 0.035,-0.262 0.098,-0.368 0.07,-0.105 0.164,-0.187 0.281,-0.246 0.121,-0.058 0.293,-0.109 0.516,-0.152 0.297,-0.055 0.504,-0.109 0.625,-0.156 v -0.063 c 0,-0.125 -0.032,-0.215 -0.094,-0.269 -0.059,-0.055 -0.176,-0.078 -0.348,-0.078 -0.113,0 -0.203,0.019 -0.269,0.066 -0.063,0.043 -0.114,0.125 -0.153,0.238 z m 0.864,0.528 c -0.082,0.023 -0.215,0.054 -0.391,0.097 -0.18,0.035 -0.301,0.071 -0.355,0.11 -0.082,0.062 -0.125,0.136 -0.125,0.226 0,0.09 0.035,0.168 0.097,0.239 0.071,0.066 0.157,0.097 0.258,0.097 0.117,0 0.231,-0.039 0.336,-0.117 0.078,-0.055 0.129,-0.129 0.152,-0.215 0.02,-0.051 0.028,-0.156 0.028,-0.312 z m 1.265,1.168 v -3.368 h 0.649 v 3.368 z m 1.305,-2.766 v -0.602 h 0.648 v 0.602 z m 0,2.766 v -2.438 h 0.648 v 2.438 z m 1.258,-2.438 h 0.594 v 0.332 c 0.214,-0.258 0.468,-0.387 0.761,-0.387 0.157,0 0.293,0.036 0.407,0.098 0.113,0.063 0.207,0.16 0.281,0.289 0.105,-0.129 0.219,-0.226 0.344,-0.289 0.125,-0.062 0.257,-0.098 0.402,-0.098 0.176,0 0.324,0.039 0.445,0.114 0.129,0.066 0.223,0.172 0.281,0.316 0.047,0.102 0.067,0.27 0.067,0.5 v 1.563 h -0.641 v -1.395 c 0,-0.242 -0.023,-0.398 -0.066,-0.465 -0.063,-0.094 -0.153,-0.14 -0.278,-0.14 -0.089,0 -0.175,0.027 -0.253,0.086 -0.079,0.05 -0.137,0.128 -0.172,0.238 -0.039,0.105 -0.055,0.273 -0.055,0.508 v 1.168 h -0.645 v -1.336 c 0,-0.235 -0.011,-0.387 -0.035,-0.457 -0.019,-0.071 -0.054,-0.121 -0.105,-0.153 -0.047,-0.039 -0.113,-0.054 -0.195,-0.054 -0.098,0 -0.188,0.027 -0.27,0.086 -0.078,0.05 -0.133,0.128 -0.172,0.23 -0.031,0.098 -0.047,0.262 -0.047,0.496 v 1.188 h -0.648 z m 5.637,1.66 0.644,0.11 c -0.082,0.238 -0.211,0.414 -0.391,0.539 -0.179,0.121 -0.402,0.183 -0.668,0.183 -0.425,0 -0.738,-0.14 -0.941,-0.418 -0.164,-0.218 -0.246,-0.5 -0.246,-0.836 0,-0.406 0.105,-0.718 0.32,-0.949 0.211,-0.226 0.477,-0.344 0.801,-0.344 0.363,0 0.649,0.122 0.856,0.364 0.21,0.234 0.312,0.601 0.3,1.093 h -1.617 c 0.008,0.192 0.063,0.34 0.16,0.446 0.098,0.109 0.223,0.16 0.371,0.16 0.102,0 0.184,-0.027 0.254,-0.078 0.067,-0.059 0.121,-0.149 0.157,-0.27 z m 0.039,-0.648 c -0.004,-0.188 -0.055,-0.332 -0.149,-0.43 -0.09,-0.098 -0.199,-0.144 -0.336,-0.144 -0.136,0 -0.254,0.05 -0.347,0.152 -0.09,0.105 -0.137,0.246 -0.137,0.422 z m 3.375,1.426 h -0.641 v -1.243 c 0,-0.265 -0.016,-0.437 -0.043,-0.515 -0.023,-0.078 -0.07,-0.137 -0.133,-0.176 -0.062,-0.047 -0.137,-0.066 -0.222,-0.066 -0.114,0 -0.215,0.027 -0.305,0.089 -0.086,0.063 -0.145,0.145 -0.18,0.247 -0.031,0.101 -0.047,0.289 -0.047,0.562 v 1.102 h -0.648 v -2.438 h 0.598 v 0.356 c 0.214,-0.274 0.484,-0.411 0.808,-0.411 0.141,0 0.27,0.028 0.387,0.082 0.117,0.047 0.207,0.114 0.269,0.196 0.059,0.078 0.102,0.168 0.121,0.269 0.024,0.098 0.036,0.239 0.036,0.426 z m 1.777,-2.438 v 0.516 h -0.441 v 0.98 c 0,0.199 0.003,0.313 0.011,0.348 0.008,0.031 0.028,0.058 0.055,0.086 0.035,0.019 0.07,0.031 0.109,0.031 0.063,0 0.149,-0.023 0.258,-0.07 l 0.055,0.504 c -0.145,0.062 -0.317,0.097 -0.508,0.097 -0.113,0 -0.219,-0.019 -0.312,-0.054 -0.094,-0.043 -0.161,-0.094 -0.208,-0.153 -0.039,-0.066 -0.07,-0.152 -0.089,-0.254 -0.012,-0.074 -0.02,-0.23 -0.02,-0.457 v -1.058 h -0.293 v -0.516 h 0.293 v -0.48 l 0.649,-0.379 v 0.859 z m 0.297,1.184 c 0,-0.215 0.055,-0.418 0.16,-0.617 0.105,-0.208 0.254,-0.36 0.445,-0.461 0.192,-0.106 0.407,-0.161 0.649,-0.161 0.367,0 0.668,0.122 0.906,0.364 0.234,0.234 0.355,0.539 0.355,0.906 0,0.363 -0.121,0.672 -0.363,0.914 -0.234,0.242 -0.535,0.363 -0.89,0.363 -0.227,0 -0.442,-0.05 -0.645,-0.152 -0.199,-0.102 -0.352,-0.25 -0.457,-0.441 -0.105,-0.196 -0.16,-0.434 -0.16,-0.715 z m 0.66,0.035 c 0,0.242 0.059,0.426 0.172,0.558 0.113,0.125 0.254,0.188 0.422,0.188 0.172,0 0.312,-0.063 0.422,-0.188 0.113,-0.132 0.171,-0.32 0.171,-0.562 0,-0.238 -0.058,-0.418 -0.171,-0.547 -0.11,-0.129 -0.25,-0.195 -0.422,-0.195 -0.168,0 -0.309,0.066 -0.422,0.195 -0.113,0.129 -0.172,0.309 -0.172,0.551 z"
                   style="fill:#000000;fill-opacity:1;fill-rule:nonzero;stroke:none"
                   id="path374" /></g></g></g></g><g
           id="g376"><g
             id="g378"><g
               id="g380"
               clip-path="url(#clipPath384)"><g
                 id="g386"><path
                   d="m 293.703,192.949 c 0,6.922 -12.269,12.535 -27.406,12.535 -15.133,0 -27.402,-5.613 -27.402,-12.535 0,-6.926 12.269,-12.535 27.402,-12.535 15.137,0 27.406,5.609 27.406,12.535 z"
                   style="fill:#ffffcc;fill-opacity:1;fill-rule:nonzero;stroke:none"
                   id="path388" /></g></g></g></g><g
           id="g390"><g
             id="g392"><g
               id="g394"
               clip-path="url(#clipPath398)"><g
                 id="g400"><g
                   id="g402"><path
                     d="m 293.703,192.949 c 0,6.922 -12.269,12.535 -27.406,12.535 -15.133,0 -27.402,-5.613 -27.402,-12.535 0,-6.926 12.269,-12.535 27.402,-12.535 15.137,0 27.406,5.609 27.406,12.535 z"
                     style="fill:none;stroke:#000000;stroke-width:0.782968;stroke-linecap:square;stroke-linejoin:miter;stroke-miterlimit:10;stroke-dasharray:none;stroke-opacity:1"
                     id="path404" /></g></g></g></g></g><g
           id="g406"><g
             id="g408"><g
               id="g410"
               clip-path="url(#clipPath414)"><g
                 id="g416"><path
                   d="m 247.262,188.809 v -3.368 h 2.496 v 0.571 h -1.817 v 0.746 h 1.688 v 0.57 h -1.688 v 0.91 h 1.879 v 0.571 z m 5.359,0 h -0.59 v -0.364 c -0.105,0.145 -0.222,0.25 -0.355,0.321 -0.137,0.062 -0.274,0.097 -0.41,0.097 -0.282,0 -0.524,-0.113 -0.723,-0.336 -0.195,-0.23 -0.293,-0.547 -0.293,-0.949 0,-0.414 0.094,-0.723 0.285,-0.937 0.199,-0.215 0.445,-0.325 0.742,-0.325 0.27,0 0.504,0.114 0.703,0.336 v -1.211 h 0.641 z m -1.719,-1.274 c 0,0.262 0.039,0.449 0.114,0.563 0.101,0.172 0.246,0.257 0.433,0.257 0.145,0 0.27,-0.062 0.371,-0.191 0.106,-0.125 0.16,-0.316 0.16,-0.566 0,-0.278 -0.05,-0.481 -0.152,-0.602 -0.098,-0.125 -0.226,-0.187 -0.387,-0.187 -0.148,0 -0.277,0.058 -0.382,0.183 -0.106,0.121 -0.157,0.301 -0.157,0.543 z m 2.356,-1.492 v -0.602 h 0.648 v 0.602 z m 0,2.766 v -2.438 h 0.648 v 2.438 z m 2.426,-2.438 v 0.516 h -0.442 v 0.976 c 0,0.203 0.004,0.317 0.016,0.352 0.008,0.031 0.023,0.058 0.055,0.086 0.031,0.019 0.066,0.031 0.109,0.031 0.062,0 0.144,-0.023 0.258,-0.07 l 0.054,0.504 c -0.148,0.062 -0.316,0.097 -0.507,0.097 -0.114,0 -0.219,-0.019 -0.313,-0.054 -0.094,-0.043 -0.164,-0.094 -0.207,-0.153 -0.043,-0.066 -0.074,-0.152 -0.094,-0.254 -0.011,-0.078 -0.019,-0.23 -0.019,-0.457 v -1.058 h -0.293 v -0.516 h 0.293 v -0.48 l 0.648,-0.379 v 0.859 z m 0.929,0.742 -0.59,-0.105 c 0.067,-0.235 0.18,-0.41 0.34,-0.52 0.16,-0.113 0.403,-0.172 0.719,-0.172 0.285,0 0.5,0.036 0.637,0.106 0.144,0.066 0.242,0.152 0.301,0.258 0.058,0.101 0.085,0.293 0.085,0.574 l -0.007,0.754 c 0,0.215 0.011,0.375 0.031,0.476 0.019,0.098 0.059,0.204 0.117,0.325 h -0.637 c -0.015,-0.047 -0.035,-0.11 -0.062,-0.192 -0.012,-0.039 -0.02,-0.066 -0.024,-0.078 -0.109,0.109 -0.226,0.191 -0.355,0.242 -0.121,0.055 -0.254,0.082 -0.395,0.082 -0.253,0 -0.453,-0.066 -0.601,-0.203 -0.141,-0.137 -0.215,-0.312 -0.215,-0.519 0,-0.141 0.035,-0.262 0.098,-0.368 0.07,-0.105 0.164,-0.187 0.281,-0.246 0.121,-0.058 0.289,-0.109 0.516,-0.152 0.296,-0.055 0.503,-0.109 0.625,-0.156 v -0.063 c 0,-0.129 -0.032,-0.215 -0.094,-0.269 -0.063,-0.055 -0.176,-0.078 -0.348,-0.078 -0.113,0 -0.203,0.019 -0.269,0.066 -0.063,0.043 -0.114,0.125 -0.153,0.238 z m 0.864,0.528 c -0.082,0.023 -0.215,0.054 -0.395,0.097 -0.18,0.035 -0.297,0.071 -0.352,0.11 -0.082,0.058 -0.125,0.136 -0.125,0.226 0,0.09 0.036,0.168 0.098,0.239 0.07,0.066 0.156,0.097 0.258,0.097 0.117,0 0.23,-0.039 0.336,-0.117 0.078,-0.059 0.129,-0.129 0.152,-0.215 0.02,-0.051 0.028,-0.156 0.028,-0.312 z m 1.882,1.168 h -0.64 v -2.438 h 0.597 v 0.344 c 0.102,-0.164 0.196,-0.27 0.278,-0.317 0.078,-0.054 0.172,-0.082 0.273,-0.082 0.149,0 0.289,0.043 0.43,0.125 l -0.203,0.555 c -0.11,-0.07 -0.211,-0.101 -0.301,-0.101 -0.094,0 -0.172,0.023 -0.23,0.078 -0.063,0.047 -0.11,0.136 -0.149,0.269 -0.035,0.125 -0.055,0.399 -0.055,0.813 z"
                   style="fill:#000000;fill-opacity:1;fill-rule:nonzero;stroke:none"
                   id="path418" /></g></g></g></g><g
           id="g420"><g
             id="g422"><g
               id="g424"
               clip-path="url(#clipPath428)"><g
                 id="g430"><path
                   d="m 247.258,191.953 v -0.601 h 0.648 v 0.601 z m 0,2.762 v -2.434 h 0.648 v 2.434 z m 3.519,0 h -0.644 v -1.242 c 0,-0.262 -0.012,-0.434 -0.043,-0.512 -0.024,-0.078 -0.067,-0.137 -0.133,-0.176 -0.062,-0.047 -0.137,-0.07 -0.219,-0.07 -0.117,0 -0.218,0.031 -0.308,0.094 -0.086,0.058 -0.145,0.14 -0.176,0.242 -0.035,0.105 -0.051,0.293 -0.051,0.562 v 1.102 h -0.648 v -2.434 h 0.601 v 0.356 c 0.211,-0.274 0.481,-0.41 0.805,-0.41 0.141,0 0.269,0.027 0.387,0.078 0.117,0.05 0.207,0.117 0.269,0.195 0.063,0.078 0.102,0.168 0.121,0.27 0.028,0.097 0.039,0.242 0.039,0.429 z m 0.371,-2.434 h 0.364 v -0.183 c 0,-0.207 0.019,-0.36 0.058,-0.457 0.047,-0.102 0.125,-0.184 0.243,-0.246 0.117,-0.067 0.265,-0.098 0.445,-0.098 0.183,0 0.363,0.027 0.539,0.078 l -0.086,0.453 c -0.102,-0.023 -0.199,-0.035 -0.293,-0.035 -0.094,0 -0.164,0.023 -0.203,0.066 -0.043,0.039 -0.063,0.125 -0.063,0.25 v 0.172 h 0.485 v 0.508 h -0.485 v 1.926 h -0.64 v -1.926 h -0.364 z m 1.7,1.18 c 0,-0.211 0.054,-0.418 0.16,-0.617 0.105,-0.203 0.254,-0.356 0.445,-0.457 0.192,-0.106 0.41,-0.16 0.649,-0.16 0.367,0 0.671,0.121 0.906,0.359 0.238,0.238 0.355,0.539 0.355,0.906 0,0.367 -0.121,0.672 -0.359,0.918 -0.238,0.242 -0.535,0.36 -0.895,0.36 -0.222,0 -0.437,-0.051 -0.64,-0.153 -0.203,-0.101 -0.356,-0.246 -0.461,-0.437 -0.106,-0.2 -0.16,-0.438 -0.16,-0.719 z m 0.66,0.039 c 0,0.238 0.058,0.426 0.172,0.555 0.117,0.129 0.258,0.191 0.422,0.191 0.171,0 0.312,-0.062 0.421,-0.191 0.118,-0.129 0.172,-0.317 0.172,-0.563 0,-0.234 -0.054,-0.418 -0.172,-0.543 -0.109,-0.133 -0.25,-0.195 -0.421,-0.195 -0.164,0 -0.305,0.062 -0.422,0.195 -0.114,0.125 -0.172,0.309 -0.172,0.551 z m 2.976,1.215 h -0.644 v -2.434 h 0.601 v 0.344 c 0.102,-0.164 0.192,-0.27 0.274,-0.32 0.082,-0.051 0.176,-0.078 0.277,-0.078 0.145,0 0.289,0.039 0.426,0.121 l -0.199,0.558 c -0.114,-0.07 -0.211,-0.105 -0.301,-0.105 -0.094,0 -0.172,0.027 -0.234,0.082 -0.059,0.047 -0.11,0.137 -0.145,0.265 -0.039,0.129 -0.055,0.399 -0.055,0.817 z m 1.161,-2.434 h 0.593 v 0.332 c 0.215,-0.258 0.473,-0.386 0.766,-0.386 0.152,0 0.289,0.031 0.402,0.097 0.114,0.063 0.207,0.156 0.282,0.289 0.105,-0.133 0.218,-0.226 0.343,-0.289 0.125,-0.066 0.262,-0.097 0.403,-0.097 0.175,0 0.324,0.035 0.445,0.109 0.129,0.07 0.223,0.176 0.281,0.32 0.047,0.102 0.07,0.27 0.07,0.5 v 1.559 h -0.644 v -1.395 c 0,-0.238 -0.02,-0.394 -0.066,-0.465 -0.063,-0.093 -0.153,-0.14 -0.274,-0.14 -0.09,0 -0.176,0.031 -0.258,0.086 -0.078,0.054 -0.136,0.133 -0.172,0.238 -0.035,0.106 -0.054,0.277 -0.054,0.508 v 1.168 h -0.645 v -1.332 c 0,-0.238 -0.012,-0.391 -0.035,-0.457 -0.019,-0.071 -0.055,-0.121 -0.105,-0.156 -0.047,-0.036 -0.114,-0.055 -0.196,-0.055 -0.097,0 -0.187,0.031 -0.269,0.086 -0.074,0.054 -0.133,0.133 -0.168,0.234 -0.035,0.098 -0.051,0.262 -0.051,0.496 v 1.184 h -0.648 z m 4.71,0.742 -0.589,-0.105 c 0.066,-0.238 0.179,-0.41 0.336,-0.52 0.164,-0.113 0.406,-0.171 0.722,-0.171 0.285,0 0.5,0.035 0.637,0.105 0.144,0.063 0.242,0.148 0.301,0.254 0.054,0.102 0.086,0.297 0.086,0.578 l -0.008,0.75 c 0,0.219 0.012,0.375 0.031,0.477 0.02,0.097 0.059,0.207 0.117,0.324 h -0.636 c -0.016,-0.043 -0.039,-0.106 -0.063,-0.188 -0.012,-0.043 -0.019,-0.066 -0.023,-0.082 -0.11,0.114 -0.227,0.196 -0.356,0.246 -0.121,0.055 -0.254,0.079 -0.398,0.079 -0.25,0 -0.453,-0.067 -0.598,-0.2 -0.144,-0.14 -0.215,-0.312 -0.215,-0.519 0,-0.141 0.031,-0.262 0.098,-0.367 0.07,-0.106 0.164,-0.188 0.281,-0.246 0.117,-0.063 0.289,-0.114 0.516,-0.153 0.297,-0.058 0.504,-0.109 0.621,-0.16 v -0.059 c 0,-0.128 -0.027,-0.218 -0.09,-0.269 -0.062,-0.055 -0.176,-0.082 -0.348,-0.082 -0.117,0 -0.207,0.023 -0.269,0.07 -0.063,0.043 -0.113,0.121 -0.153,0.238 z m 0.86,0.524 c -0.078,0.027 -0.211,0.058 -0.391,0.098 -0.179,0.039 -0.297,0.074 -0.355,0.109 -0.078,0.062 -0.121,0.137 -0.121,0.226 0,0.09 0.031,0.172 0.097,0.243 0.071,0.062 0.157,0.097 0.258,0.097 0.117,0 0.231,-0.039 0.336,-0.117 0.078,-0.058 0.129,-0.129 0.152,-0.215 0.016,-0.054 0.024,-0.156 0.024,-0.312 z m 3.39,-0.551 -0.628,0.117 c -0.024,-0.125 -0.075,-0.218 -0.153,-0.281 -0.074,-0.066 -0.172,-0.098 -0.289,-0.098 -0.164,0 -0.293,0.055 -0.39,0.164 -0.094,0.11 -0.141,0.297 -0.141,0.559 0,0.289 0.047,0.492 0.144,0.609 0.102,0.122 0.231,0.18 0.395,0.18 0.121,0 0.223,-0.035 0.297,-0.105 0.078,-0.071 0.133,-0.188 0.168,-0.36 l 0.637,0.11 c -0.067,0.289 -0.196,0.507 -0.383,0.66 -0.188,0.148 -0.438,0.219 -0.75,0.219 -0.356,0 -0.641,-0.11 -0.852,-0.336 -0.211,-0.223 -0.316,-0.536 -0.316,-0.934 0,-0.402 0.105,-0.711 0.316,-0.937 0.211,-0.223 0.5,-0.336 0.863,-0.336 0.297,0 0.536,0.062 0.711,0.191 0.176,0.125 0.297,0.32 0.371,0.578 z m 0.493,-1.043 v -0.601 h 0.648 v 0.601 z m 0,2.762 v -2.434 h 0.648 v 2.434 z m 1.156,-1.254 c 0,-0.211 0.055,-0.418 0.16,-0.617 0.106,-0.203 0.254,-0.356 0.445,-0.457 0.192,-0.106 0.411,-0.16 0.649,-0.16 0.367,0 0.668,0.121 0.906,0.359 0.238,0.238 0.356,0.539 0.356,0.906 0,0.367 -0.122,0.672 -0.364,0.918 -0.234,0.242 -0.531,0.36 -0.89,0.36 -0.227,0 -0.438,-0.051 -0.645,-0.153 -0.199,-0.101 -0.351,-0.246 -0.457,-0.437 -0.105,-0.2 -0.16,-0.438 -0.16,-0.719 z m 0.66,0.039 c 0,0.238 0.059,0.426 0.172,0.555 0.113,0.129 0.254,0.191 0.422,0.191 0.172,0 0.312,-0.062 0.422,-0.191 0.113,-0.129 0.172,-0.317 0.172,-0.563 0,-0.234 -0.059,-0.418 -0.172,-0.543 -0.11,-0.133 -0.25,-0.195 -0.422,-0.195 -0.168,0 -0.309,0.062 -0.422,0.195 -0.113,0.125 -0.172,0.309 -0.172,0.551 z m 0.363,-1.52 0.317,-0.683 h 0.722 l -0.628,0.683 z m 4.207,2.735 h -0.64 v -1.242 c 0,-0.262 -0.016,-0.434 -0.043,-0.512 -0.024,-0.078 -0.071,-0.137 -0.137,-0.176 -0.059,-0.047 -0.133,-0.07 -0.219,-0.07 -0.113,0 -0.215,0.031 -0.304,0.094 -0.086,0.058 -0.145,0.14 -0.18,0.242 -0.031,0.105 -0.047,0.293 -0.047,0.562 v 1.102 h -0.648 v -2.434 h 0.597 v 0.356 c 0.215,-0.274 0.481,-0.41 0.809,-0.41 0.137,0 0.266,0.027 0.387,0.078 0.117,0.05 0.207,0.117 0.269,0.195 0.059,0.078 0.102,0.168 0.121,0.27 0.024,0.097 0.035,0.242 0.035,0.429 z m 4.196,0 h -0.594 v -0.36 c -0.102,0.141 -0.223,0.25 -0.356,0.317 -0.132,0.066 -0.269,0.098 -0.41,0.098 -0.281,0 -0.523,-0.11 -0.722,-0.336 -0.196,-0.227 -0.293,-0.543 -0.293,-0.946 0,-0.414 0.097,-0.726 0.289,-0.937 0.195,-0.215 0.441,-0.324 0.738,-0.324 0.27,0 0.504,0.113 0.703,0.336 v -1.211 h 0.645 z m -1.719,-1.27 c 0,0.258 0.035,0.446 0.109,0.563 0.102,0.172 0.246,0.254 0.434,0.254 0.148,0 0.269,-0.063 0.375,-0.188 0.105,-0.125 0.156,-0.316 0.156,-0.57 0,-0.277 -0.051,-0.477 -0.152,-0.598 -0.098,-0.129 -0.227,-0.191 -0.387,-0.191 -0.148,0 -0.277,0.062 -0.383,0.183 -0.101,0.125 -0.152,0.305 -0.152,0.547 z m 3.766,0.493 0.644,0.113 c -0.082,0.234 -0.211,0.414 -0.391,0.535 -0.179,0.125 -0.402,0.184 -0.667,0.184 -0.426,0 -0.739,-0.137 -0.942,-0.415 -0.164,-0.218 -0.246,-0.5 -0.246,-0.839 0,-0.403 0.105,-0.719 0.32,-0.946 0.211,-0.23 0.477,-0.343 0.801,-0.343 0.363,0 0.649,0.121 0.856,0.359 0.211,0.238 0.312,0.602 0.3,1.098 h -1.617 c 0.008,0.191 0.063,0.339 0.16,0.445 0.098,0.105 0.223,0.16 0.375,0.16 0.098,0 0.18,-0.027 0.25,-0.082 0.071,-0.055 0.121,-0.144 0.157,-0.269 z m 0.039,-0.649 c -0.004,-0.187 -0.055,-0.328 -0.149,-0.426 -0.09,-0.097 -0.199,-0.148 -0.336,-0.148 -0.136,0 -0.254,0.051 -0.347,0.152 -0.09,0.11 -0.137,0.25 -0.137,0.422 z"
                   style="fill:#000000;fill-opacity:1;fill-rule:nonzero;stroke:none"
                   id="path432" /></g></g></g></g><g
           id="g434"><g
             id="g436"><g
               id="g438"
               clip-path="url(#clipPath442)"><g
                 id="g444"><path
                   d="m 248.859,200.625 v -0.367 c -0.086,0.129 -0.203,0.234 -0.347,0.312 -0.145,0.075 -0.297,0.11 -0.461,0.11 -0.16,0 -0.309,-0.035 -0.438,-0.102 -0.133,-0.074 -0.226,-0.176 -0.281,-0.308 -0.059,-0.129 -0.086,-0.309 -0.086,-0.54 v -1.539 h 0.641 v 1.118 c 0,0.343 0.011,0.554 0.035,0.632 0.027,0.075 0.07,0.137 0.129,0.184 0.066,0.043 0.144,0.066 0.238,0.066 0.113,0 0.211,-0.031 0.297,-0.093 0.086,-0.059 0.148,-0.137 0.184,-0.227 0.031,-0.09 0.046,-0.305 0.046,-0.652 v -1.028 h 0.641 v 2.434 z m 3.481,0 h -0.641 v -1.242 c 0,-0.266 -0.015,-0.438 -0.043,-0.512 -0.023,-0.078 -0.07,-0.137 -0.136,-0.18 -0.059,-0.043 -0.133,-0.066 -0.219,-0.066 -0.113,0 -0.215,0.031 -0.305,0.09 -0.086,0.062 -0.144,0.144 -0.18,0.246 -0.031,0.102 -0.046,0.289 -0.046,0.562 v 1.102 h -0.649 v -2.434 h 0.598 v 0.356 c 0.215,-0.274 0.48,-0.41 0.808,-0.41 0.137,0 0.266,0.023 0.387,0.078 0.117,0.051 0.207,0.113 0.266,0.195 0.062,0.078 0.105,0.168 0.125,0.27 0.023,0.097 0.035,0.242 0.035,0.429 z m 2.445,-1.695 -0.59,-0.102 c 0.067,-0.238 0.18,-0.41 0.34,-0.519 0.16,-0.118 0.403,-0.172 0.719,-0.172 0.285,0 0.5,0.035 0.637,0.101 0.144,0.067 0.242,0.153 0.3,0.258 0.059,0.102 0.086,0.293 0.086,0.574 l -0.007,0.754 c 0,0.215 0.011,0.375 0.031,0.477 0.019,0.097 0.058,0.207 0.117,0.324 h -0.637 c -0.015,-0.043 -0.035,-0.109 -0.062,-0.191 -0.012,-0.039 -0.02,-0.067 -0.024,-0.079 -0.109,0.11 -0.226,0.192 -0.355,0.247 -0.121,0.05 -0.254,0.078 -0.395,0.078 -0.254,0 -0.453,-0.067 -0.601,-0.203 -0.141,-0.137 -0.215,-0.309 -0.215,-0.52 0,-0.137 0.035,-0.258 0.098,-0.367 0.07,-0.106 0.164,-0.188 0.281,-0.242 0.121,-0.063 0.289,-0.114 0.515,-0.153 0.297,-0.058 0.504,-0.113 0.625,-0.16 v -0.062 c 0,-0.125 -0.031,-0.215 -0.093,-0.27 -0.063,-0.051 -0.176,-0.078 -0.348,-0.078 -0.113,0 -0.203,0.023 -0.269,0.066 -0.063,0.047 -0.114,0.125 -0.153,0.239 z m 0.863,0.527 c -0.082,0.023 -0.214,0.059 -0.394,0.098 -0.18,0.035 -0.297,0.074 -0.352,0.109 -0.082,0.063 -0.125,0.137 -0.125,0.227 0,0.089 0.036,0.168 0.098,0.238 0.07,0.066 0.156,0.098 0.258,0.098 0.117,0 0.23,-0.039 0.336,-0.114 0.078,-0.058 0.129,-0.129 0.152,-0.215 0.016,-0.054 0.027,-0.156 0.027,-0.312 z m 1.266,1.168 v -3.363 h 0.649 v 3.363 z m 1.305,-2.766 v -0.597 h 0.648 v 0.597 z m 0,2.766 v -2.434 h 0.648 v 2.434 z m 1.258,-2.434 h 0.593 v 0.329 c 0.215,-0.254 0.469,-0.383 0.762,-0.383 0.156,0 0.289,0.031 0.406,0.097 0.114,0.059 0.207,0.157 0.282,0.286 0.105,-0.129 0.218,-0.227 0.339,-0.286 0.129,-0.066 0.262,-0.097 0.407,-0.097 0.175,0 0.324,0.035 0.445,0.109 0.125,0.07 0.219,0.176 0.281,0.317 0.047,0.101 0.067,0.269 0.067,0.503 v 1.559 h -0.641 v -1.395 c 0,-0.242 -0.023,-0.394 -0.066,-0.464 -0.063,-0.094 -0.153,-0.141 -0.278,-0.141 -0.09,0 -0.176,0.027 -0.258,0.086 -0.074,0.051 -0.132,0.133 -0.168,0.238 -0.039,0.106 -0.058,0.274 -0.058,0.508 v 1.168 h -0.641 v -1.332 c 0,-0.238 -0.011,-0.391 -0.035,-0.461 -0.023,-0.07 -0.055,-0.121 -0.105,-0.152 -0.047,-0.035 -0.114,-0.055 -0.196,-0.055 -0.097,0 -0.187,0.027 -0.269,0.086 -0.078,0.051 -0.133,0.129 -0.172,0.23 -0.031,0.098 -0.047,0.266 -0.047,0.497 v 1.187 h -0.648 z m 5.636,1.657 0.645,0.109 c -0.082,0.238 -0.215,0.418 -0.395,0.539 -0.175,0.121 -0.398,0.184 -0.664,0.184 -0.426,0 -0.738,-0.137 -0.941,-0.414 -0.164,-0.223 -0.246,-0.5 -0.246,-0.84 0,-0.403 0.105,-0.719 0.316,-0.949 0.215,-0.227 0.481,-0.34 0.805,-0.34 0.359,0 0.648,0.121 0.855,0.359 0.211,0.238 0.313,0.602 0.301,1.094 h -1.617 c 0.008,0.191 0.062,0.344 0.16,0.449 0.098,0.106 0.223,0.156 0.371,0.156 0.098,0 0.184,-0.023 0.254,-0.078 0.066,-0.058 0.121,-0.148 0.156,-0.269 z m 0.039,-0.649 c -0.004,-0.187 -0.054,-0.328 -0.148,-0.426 -0.09,-0.097 -0.203,-0.148 -0.336,-0.148 -0.141,0 -0.254,0.051 -0.348,0.152 -0.09,0.106 -0.136,0.246 -0.136,0.422 z m 3.375,1.426 h -0.64 v -1.242 c 0,-0.266 -0.016,-0.438 -0.043,-0.512 -0.024,-0.078 -0.071,-0.137 -0.137,-0.18 -0.059,-0.043 -0.133,-0.066 -0.219,-0.066 -0.113,0 -0.215,0.031 -0.304,0.09 -0.086,0.062 -0.145,0.144 -0.18,0.246 -0.031,0.102 -0.047,0.289 -0.047,0.562 v 1.102 h -0.648 v -2.434 h 0.597 v 0.356 c 0.215,-0.274 0.481,-0.41 0.809,-0.41 0.137,0 0.265,0.023 0.387,0.078 0.117,0.051 0.207,0.113 0.269,0.195 0.059,0.078 0.102,0.168 0.121,0.27 0.024,0.097 0.035,0.242 0.035,0.429 z m 1.778,-2.434 v 0.512 h -0.442 v 0.981 c 0,0.199 0.004,0.316 0.012,0.347 0.008,0.032 0.027,0.063 0.055,0.086 0.031,0.02 0.07,0.031 0.109,0.031 0.063,0 0.149,-0.023 0.258,-0.066 l 0.055,0.5 c -0.145,0.066 -0.317,0.098 -0.508,0.098 -0.114,0 -0.219,-0.02 -0.313,-0.055 -0.093,-0.039 -0.16,-0.09 -0.207,-0.152 -0.039,-0.067 -0.07,-0.149 -0.09,-0.25 -0.015,-0.078 -0.019,-0.231 -0.019,-0.461 v -1.059 h -0.293 v -0.512 h 0.293 v -0.484 l 0.648,-0.379 v 0.863 z m 0.297,1.18 c 0,-0.211 0.05,-0.418 0.16,-0.617 0.105,-0.203 0.254,-0.356 0.445,-0.461 0.191,-0.105 0.406,-0.156 0.648,-0.156 0.368,0 0.668,0.121 0.907,0.359 0.234,0.238 0.355,0.539 0.355,0.906 0,0.368 -0.121,0.672 -0.363,0.918 -0.234,0.239 -0.535,0.36 -0.895,0.36 -0.222,0 -0.437,-0.051 -0.64,-0.153 -0.199,-0.101 -0.352,-0.25 -0.457,-0.441 -0.11,-0.195 -0.16,-0.434 -0.16,-0.715 z m 0.66,0.035 c 0,0.242 0.058,0.43 0.172,0.559 0.113,0.125 0.254,0.187 0.421,0.187 0.172,0 0.313,-0.062 0.422,-0.187 0.114,-0.129 0.172,-0.32 0.172,-0.563 0,-0.238 -0.058,-0.418 -0.172,-0.547 -0.109,-0.128 -0.25,-0.195 -0.422,-0.195 -0.167,0 -0.308,0.067 -0.421,0.195 -0.114,0.129 -0.172,0.313 -0.172,0.551 z"
                   style="fill:#000000;fill-opacity:1;fill-rule:nonzero;stroke:none"
                   id="path446" /></g></g></g></g><g
           id="g448"><g
             id="g450"><g
               id="g452"
               clip-path="url(#clipPath456)"><g
                 id="g458"><path
                   d="m 287.902,234.051 c 0,4.324 -12.269,7.832 -27.406,7.832 -15.133,0 -27.402,-3.508 -27.402,-7.832 0,-4.324 12.269,-7.828 27.402,-7.828 15.137,0 27.406,3.504 27.406,7.828 z"
                   style="fill:#ffffcc;fill-opacity:1;fill-rule:nonzero;stroke:none"
                   id="path460" /></g></g></g></g><g
           id="g462"><g
             id="g464"><g
               id="g466"
               clip-path="url(#clipPath470)"><g
                 id="g472"><g
                   id="g474"><path
                     d="m 287.902,234.051 c 0,4.324 -12.269,7.832 -27.406,7.832 -15.133,0 -27.402,-3.508 -27.402,-7.832 0,-4.324 12.269,-7.828 27.402,-7.828 15.137,0 27.406,3.504 27.406,7.828 z"
                     style="fill:none;stroke:#000000;stroke-width:0.782968;stroke-linecap:square;stroke-linejoin:miter;stroke-miterlimit:10;stroke-dasharray:none;stroke-opacity:1"
                     id="path476" /></g></g></g></g></g><g
           id="g478"><g
             id="g480"><g
               id="g482"
               clip-path="url(#clipPath486)"><g
                 id="g488"><path
                   d="m 243.996,235.82 v -3.363 h 2.496 v 0.566 h -1.816 v 0.747 h 1.687 v 0.57 h -1.687 v 0.91 h 1.879 v 0.57 z m 3.129,0 v -3.363 h 0.648 v 3.363 z m 1.305,-2.765 v -0.598 h 0.648 v 0.598 z m 0,2.765 v -2.433 h 0.648 v 2.433 z m 1.258,-2.433 h 0.593 v 0.328 c 0.215,-0.258 0.469,-0.383 0.762,-0.383 0.156,0 0.293,0.031 0.406,0.098 0.114,0.058 0.207,0.156 0.281,0.285 0.106,-0.129 0.219,-0.227 0.34,-0.285 0.129,-0.067 0.262,-0.098 0.407,-0.098 0.175,0 0.324,0.035 0.445,0.109 0.129,0.067 0.223,0.176 0.281,0.317 0.047,0.101 0.067,0.269 0.067,0.504 v 1.558 h -0.641 v -1.394 c 0,-0.242 -0.024,-0.395 -0.066,-0.465 -0.063,-0.094 -0.153,-0.141 -0.278,-0.141 -0.09,0 -0.176,0.028 -0.254,0.086 -0.078,0.051 -0.136,0.133 -0.172,0.239 -0.039,0.105 -0.054,0.273 -0.054,0.507 v 1.168 h -0.645 v -1.336 c 0,-0.234 -0.012,-0.386 -0.035,-0.457 -0.02,-0.07 -0.055,-0.121 -0.105,-0.152 -0.047,-0.039 -0.114,-0.055 -0.196,-0.055 -0.097,0 -0.187,0.028 -0.269,0.086 -0.078,0.051 -0.133,0.129 -0.172,0.231 -0.031,0.097 -0.047,0.265 -0.047,0.496 v 1.187 h -0.648 z m 4.226,-0.332 v -0.598 h 0.649 v 0.598 z m 0,2.765 v -2.433 h 0.649 v 2.433 z m 3.52,0 h -0.645 v -1.242 c 0,-0.265 -0.012,-0.437 -0.043,-0.515 -0.023,-0.075 -0.066,-0.137 -0.133,-0.176 -0.062,-0.043 -0.136,-0.067 -0.222,-0.067 -0.114,0 -0.215,0.032 -0.305,0.09 -0.086,0.063 -0.145,0.145 -0.176,0.246 -0.035,0.102 -0.051,0.289 -0.051,0.563 v 1.101 h -0.648 v -2.433 h 0.602 v 0.351 c 0.21,-0.273 0.48,-0.406 0.804,-0.406 0.141,0 0.27,0.023 0.387,0.078 0.117,0.047 0.207,0.113 0.269,0.195 0.063,0.079 0.102,0.168 0.122,0.27 0.027,0.098 0.039,0.238 0.039,0.43 z m 1.136,-1.695 -0.586,-0.105 c 0.063,-0.235 0.176,-0.407 0.336,-0.52 0.164,-0.113 0.403,-0.168 0.723,-0.168 0.285,0 0.496,0.031 0.637,0.102 0.14,0.066 0.242,0.152 0.297,0.257 0.058,0.102 0.086,0.293 0.086,0.575 l -0.004,0.754 c 0,0.214 0.007,0.375 0.027,0.476 0.023,0.098 0.062,0.207 0.117,0.324 h -0.637 c -0.015,-0.047 -0.035,-0.109 -0.058,-0.191 -0.012,-0.039 -0.024,-0.066 -0.028,-0.078 -0.109,0.109 -0.226,0.191 -0.351,0.246 -0.125,0.051 -0.258,0.078 -0.399,0.078 -0.253,0 -0.453,-0.066 -0.601,-0.203 -0.141,-0.137 -0.211,-0.313 -0.211,-0.52 0,-0.136 0.031,-0.261 0.098,-0.367 0.066,-0.105 0.16,-0.187 0.281,-0.242 0.117,-0.063 0.289,-0.113 0.512,-0.156 0.296,-0.055 0.507,-0.11 0.625,-0.157 v -0.062 c 0,-0.125 -0.032,-0.215 -0.094,-0.27 -0.059,-0.05 -0.176,-0.078 -0.348,-0.078 -0.113,0 -0.203,0.024 -0.269,0.067 -0.059,0.047 -0.11,0.125 -0.153,0.238 z m 0.864,0.527 c -0.082,0.024 -0.211,0.055 -0.391,0.098 -0.18,0.035 -0.301,0.074 -0.355,0.109 -0.083,0.063 -0.122,0.137 -0.122,0.227 0,0.09 0.032,0.168 0.098,0.238 0.066,0.067 0.152,0.098 0.254,0.098 0.121,0 0.23,-0.039 0.336,-0.117 0.078,-0.055 0.129,-0.129 0.156,-0.211 0.016,-0.055 0.024,-0.16 0.024,-0.313 z m 1.882,1.168 h -0.64 v -2.433 h 0.597 v 0.34 c 0.106,-0.161 0.196,-0.27 0.278,-0.317 0.082,-0.055 0.172,-0.078 0.273,-0.078 0.149,0 0.293,0.039 0.43,0.121 l -0.203,0.555 c -0.11,-0.067 -0.207,-0.102 -0.297,-0.102 -0.094,0 -0.172,0.028 -0.234,0.078 -0.063,0.051 -0.11,0.141 -0.145,0.27 -0.039,0.125 -0.059,0.398 -0.059,0.812 z m 3.137,0 h -0.644 v -2.433 h 0.601 v 0.34 c 0.102,-0.161 0.192,-0.27 0.274,-0.317 0.082,-0.055 0.171,-0.078 0.277,-0.078 0.144,0 0.289,0.039 0.426,0.121 l -0.203,0.555 c -0.11,-0.067 -0.207,-0.102 -0.297,-0.102 -0.094,0 -0.172,0.028 -0.235,0.078 -0.058,0.051 -0.109,0.141 -0.144,0.27 -0.039,0.125 -0.055,0.398 -0.055,0.812 z m 2.621,-0.777 0.645,0.109 c -0.082,0.239 -0.215,0.418 -0.395,0.539 -0.179,0.122 -0.398,0.184 -0.664,0.184 -0.426,0 -0.738,-0.141 -0.941,-0.418 -0.164,-0.219 -0.246,-0.496 -0.246,-0.836 0,-0.402 0.105,-0.719 0.316,-0.949 0.215,-0.227 0.481,-0.34 0.801,-0.34 0.363,0 0.648,0.117 0.859,0.359 0.211,0.235 0.313,0.602 0.297,1.094 h -1.613 c 0.008,0.192 0.062,0.34 0.16,0.449 0.098,0.106 0.223,0.157 0.371,0.157 0.098,0 0.184,-0.028 0.25,-0.078 0.07,-0.059 0.125,-0.149 0.16,-0.27 z m 0.039,-0.648 c -0.004,-0.188 -0.054,-0.332 -0.148,-0.43 -0.09,-0.098 -0.203,-0.145 -0.336,-0.145 -0.141,0 -0.254,0.051 -0.348,0.153 -0.09,0.105 -0.136,0.246 -0.136,0.422 z m 3.285,-0.293 -0.632,0.117 c -0.024,-0.129 -0.075,-0.223 -0.153,-0.281 -0.074,-0.067 -0.168,-0.098 -0.285,-0.098 -0.164,0 -0.297,0.055 -0.394,0.164 -0.094,0.109 -0.141,0.293 -0.141,0.555 0,0.289 0.051,0.496 0.148,0.613 0.098,0.117 0.227,0.176 0.391,0.176 0.121,0 0.223,-0.035 0.301,-0.102 0.078,-0.07 0.133,-0.191 0.164,-0.363 l 0.637,0.109 c -0.067,0.293 -0.192,0.512 -0.379,0.664 -0.188,0.145 -0.438,0.219 -0.754,0.219 -0.352,0 -0.637,-0.113 -0.848,-0.336 -0.215,-0.226 -0.32,-0.535 -0.32,-0.937 0,-0.399 0.105,-0.711 0.32,-0.934 0.211,-0.227 0.5,-0.336 0.86,-0.336 0.3,0 0.535,0.063 0.71,0.188 0.176,0.125 0.301,0.32 0.375,0.582 z m 1.903,0.941 0.64,0.109 c -0.082,0.239 -0.211,0.418 -0.39,0.539 -0.18,0.122 -0.403,0.184 -0.668,0.184 -0.422,0 -0.738,-0.141 -0.942,-0.418 -0.164,-0.219 -0.242,-0.496 -0.242,-0.836 0,-0.402 0.106,-0.719 0.317,-0.949 0.211,-0.227 0.48,-0.34 0.8,-0.34 0.364,0 0.649,0.117 0.856,0.359 0.215,0.235 0.312,0.602 0.301,1.094 h -1.614 c 0.008,0.192 0.059,0.34 0.157,0.449 0.097,0.106 0.222,0.157 0.375,0.157 0.097,0 0.179,-0.028 0.25,-0.078 0.07,-0.059 0.121,-0.149 0.16,-0.27 z m 0.035,-0.648 c -0.004,-0.188 -0.051,-0.332 -0.145,-0.43 -0.089,-0.098 -0.203,-0.145 -0.336,-0.145 -0.14,0 -0.257,0.051 -0.351,0.153 -0.09,0.105 -0.133,0.246 -0.133,0.422 z m 2.285,-1.008 v 0.511 h -0.441 v 0.981 c 0,0.199 0.004,0.316 0.011,0.348 0.008,0.031 0.028,0.062 0.055,0.086 0.031,0.019 0.07,0.031 0.109,0.031 0.063,0 0.149,-0.024 0.258,-0.071 l 0.055,0.504 c -0.148,0.067 -0.316,0.098 -0.508,0.098 -0.113,0 -0.219,-0.02 -0.312,-0.055 -0.094,-0.043 -0.164,-0.093 -0.207,-0.152 -0.039,-0.066 -0.071,-0.148 -0.09,-0.25 -0.016,-0.078 -0.02,-0.23 -0.02,-0.461 v -1.059 h -0.293 v -0.511 h 0.293 v -0.485 l 0.649,-0.379 v 0.864 z m 0.926,0.738 -0.586,-0.105 c 0.066,-0.235 0.176,-0.407 0.336,-0.52 0.164,-0.113 0.402,-0.168 0.723,-0.168 0.285,0 0.496,0.031 0.636,0.102 0.141,0.066 0.242,0.152 0.297,0.257 0.059,0.102 0.086,0.293 0.086,0.575 l -0.004,0.754 c 0,0.214 0.008,0.375 0.031,0.476 0.02,0.098 0.059,0.207 0.114,0.324 h -0.637 c -0.016,-0.047 -0.035,-0.109 -0.059,-0.191 -0.011,-0.039 -0.019,-0.066 -0.027,-0.078 -0.109,0.109 -0.227,0.191 -0.352,0.246 -0.125,0.051 -0.257,0.078 -0.398,0.078 -0.254,0 -0.453,-0.066 -0.602,-0.203 -0.14,-0.137 -0.21,-0.313 -0.21,-0.52 0,-0.136 0.031,-0.261 0.097,-0.367 0.067,-0.105 0.16,-0.187 0.281,-0.242 0.118,-0.063 0.29,-0.113 0.512,-0.156 0.297,-0.055 0.508,-0.11 0.625,-0.157 v -0.062 c 0,-0.125 -0.031,-0.215 -0.094,-0.27 -0.058,-0.05 -0.175,-0.078 -0.347,-0.078 -0.114,0 -0.203,0.024 -0.27,0.067 -0.058,0.047 -0.109,0.125 -0.152,0.238 z m 0.863,0.527 c -0.082,0.024 -0.211,0.055 -0.39,0.098 -0.18,0.035 -0.297,0.074 -0.356,0.109 -0.082,0.063 -0.121,0.137 -0.121,0.227 0,0.09 0.031,0.168 0.098,0.238 0.066,0.067 0.152,0.098 0.254,0.098 0.121,0 0.23,-0.039 0.339,-0.117 0.075,-0.055 0.125,-0.129 0.153,-0.211 0.015,-0.055 0.023,-0.16 0.023,-0.313 z"
                   style="fill:#000000;fill-opacity:1;fill-rule:nonzero;stroke:none"
                   id="path490" /></g></g></g></g><g
           id="g492"><g
             id="g494"><g
               id="g496"
               clip-path="url(#clipPath500)"><g
                 id="g502"><path
                   d="m 285.406,277.695 c 0,4.325 -12.269,7.828 -27.406,7.828 -15.133,0 -27.402,-3.503 -27.402,-7.828 0,-4.324 12.269,-7.828 27.402,-7.828 15.137,0 27.406,3.504 27.406,7.828 z"
                   style="fill:#ffffcc;fill-opacity:1;fill-rule:nonzero;stroke:none"
                   id="path504" /></g></g></g></g><g
           id="g506"><g
             id="g508"><g
               id="g510"
               clip-path="url(#clipPath514)"><g
                 id="g516"><g
                   id="g518"><path
                     d="m 285.406,277.695 c 0,4.325 -12.269,7.828 -27.406,7.828 -15.133,0 -27.402,-3.503 -27.402,-7.828 0,-4.324 12.269,-7.828 27.402,-7.828 15.137,0 27.406,3.504 27.406,7.828 z"
                     style="fill:none;stroke:#000000;stroke-width:0.782968;stroke-linecap:square;stroke-linejoin:miter;stroke-miterlimit:10;stroke-dasharray:none;stroke-opacity:1"
                     id="path520" /></g></g></g></g></g><g
           id="g522"><g
             id="g524"><g
               id="g526"
               clip-path="url(#clipPath530)"><g
                 id="g532"><path
                   d="m 244.051,278.227 0.652,0.211 c -0.098,0.367 -0.265,0.64 -0.5,0.82 -0.238,0.172 -0.535,0.262 -0.894,0.262 -0.45,0 -0.817,-0.153 -1.106,-0.454 -0.285,-0.304 -0.43,-0.722 -0.43,-1.253 0,-0.559 0.145,-0.993 0.434,-1.305 0.289,-0.309 0.672,-0.465 1.145,-0.465 0.414,0 0.746,0.121 1.003,0.363 0.153,0.145 0.266,0.356 0.344,0.625 l -0.676,0.157 c -0.039,-0.176 -0.121,-0.313 -0.25,-0.411 -0.125,-0.101 -0.277,-0.152 -0.457,-0.152 -0.25,0 -0.453,0.09 -0.605,0.27 -0.156,0.175 -0.234,0.464 -0.234,0.867 0,0.426 0.078,0.726 0.226,0.906 0.156,0.18 0.356,0.27 0.602,0.27 0.179,0 0.332,-0.055 0.465,-0.172 0.128,-0.114 0.222,-0.293 0.281,-0.539 z m 1.851,1.238 h -0.644 v -2.434 h 0.601 v 0.34 c 0.102,-0.16 0.192,-0.269 0.274,-0.316 0.082,-0.055 0.172,-0.082 0.277,-0.082 0.145,0 0.289,0.043 0.426,0.125 l -0.203,0.554 c -0.11,-0.066 -0.207,-0.101 -0.297,-0.101 -0.094,0 -0.172,0.023 -0.234,0.078 -0.059,0.051 -0.11,0.141 -0.145,0.269 -0.039,0.125 -0.055,0.399 -0.055,0.813 z m 2.621,-0.777 0.645,0.109 c -0.082,0.238 -0.215,0.418 -0.395,0.539 -0.179,0.121 -0.398,0.184 -0.664,0.184 -0.425,0 -0.738,-0.141 -0.941,-0.418 -0.164,-0.219 -0.246,-0.497 -0.246,-0.836 0,-0.403 0.105,-0.719 0.316,-0.95 0.215,-0.226 0.481,-0.343 0.801,-0.343 0.363,0 0.649,0.121 0.859,0.363 0.211,0.234 0.313,0.602 0.297,1.094 h -1.613 c 0.008,0.191 0.063,0.34 0.16,0.445 0.098,0.109 0.223,0.16 0.371,0.16 0.098,0 0.184,-0.027 0.25,-0.078 0.071,-0.059 0.125,-0.148 0.16,-0.269 z m 0.04,-0.649 c -0.004,-0.187 -0.055,-0.332 -0.149,-0.43 -0.09,-0.097 -0.203,-0.144 -0.336,-0.144 -0.14,0 -0.254,0.051 -0.348,0.152 -0.089,0.106 -0.136,0.246 -0.136,0.422 z m 1.644,-0.269 -0.586,-0.106 c 0.063,-0.234 0.176,-0.406 0.336,-0.519 0.164,-0.114 0.402,-0.172 0.723,-0.172 0.285,0 0.496,0.035 0.633,0.105 0.144,0.067 0.246,0.152 0.3,0.258 0.059,0.102 0.086,0.293 0.086,0.574 l -0.004,0.754 c 0,0.215 0.008,0.375 0.028,0.477 0.023,0.097 0.058,0.207 0.117,0.324 h -0.637 c -0.015,-0.047 -0.035,-0.11 -0.058,-0.192 -0.016,-0.039 -0.024,-0.066 -0.028,-0.078 -0.109,0.11 -0.226,0.192 -0.355,0.246 -0.121,0.051 -0.254,0.079 -0.395,0.079 -0.254,0 -0.453,-0.067 -0.601,-0.204 -0.141,-0.136 -0.215,-0.312 -0.215,-0.519 0,-0.137 0.035,-0.262 0.097,-0.367 0.071,-0.106 0.165,-0.188 0.286,-0.242 0.117,-0.063 0.289,-0.114 0.511,-0.157 0.297,-0.054 0.508,-0.109 0.625,-0.156 v -0.062 c 0,-0.125 -0.031,-0.215 -0.093,-0.27 -0.059,-0.051 -0.176,-0.078 -0.348,-0.078 -0.113,0 -0.203,0.019 -0.27,0.066 -0.062,0.043 -0.113,0.125 -0.152,0.239 z m 0.863,0.527 c -0.082,0.023 -0.215,0.055 -0.39,0.098 -0.18,0.035 -0.301,0.074 -0.356,0.109 -0.082,0.062 -0.125,0.137 -0.125,0.226 0,0.09 0.035,0.168 0.098,0.239 0.07,0.066 0.156,0.097 0.258,0.097 0.121,0 0.23,-0.039 0.336,-0.117 0.078,-0.054 0.129,-0.129 0.156,-0.215 0.016,-0.05 0.023,-0.156 0.023,-0.308 z m 1.883,1.168 h -0.64 v -2.434 h 0.597 v 0.34 c 0.102,-0.16 0.195,-0.269 0.278,-0.316 0.082,-0.055 0.171,-0.082 0.273,-0.082 0.148,0 0.289,0.043 0.43,0.125 l -0.203,0.554 c -0.11,-0.066 -0.211,-0.101 -0.301,-0.101 -0.094,0 -0.168,0.023 -0.231,0.078 -0.062,0.051 -0.109,0.141 -0.148,0.269 -0.035,0.125 -0.055,0.399 -0.055,0.813 z m 3,-1.695 -0.586,-0.106 c 0.063,-0.234 0.176,-0.406 0.336,-0.519 0.164,-0.114 0.402,-0.172 0.723,-0.172 0.285,0 0.496,0.035 0.633,0.105 0.144,0.067 0.246,0.152 0.3,0.258 0.059,0.102 0.086,0.293 0.086,0.574 l -0.004,0.754 c 0,0.215 0.008,0.375 0.028,0.477 0.023,0.097 0.058,0.207 0.117,0.324 h -0.637 c -0.015,-0.047 -0.035,-0.11 -0.058,-0.192 -0.016,-0.039 -0.024,-0.066 -0.028,-0.078 -0.109,0.11 -0.226,0.192 -0.355,0.246 -0.121,0.051 -0.254,0.079 -0.395,0.079 -0.254,0 -0.453,-0.067 -0.601,-0.204 -0.141,-0.136 -0.215,-0.312 -0.215,-0.519 0,-0.137 0.035,-0.262 0.098,-0.367 0.07,-0.106 0.164,-0.188 0.285,-0.242 0.117,-0.063 0.289,-0.114 0.511,-0.157 0.297,-0.054 0.508,-0.109 0.625,-0.156 v -0.062 c 0,-0.125 -0.031,-0.215 -0.093,-0.27 -0.059,-0.051 -0.176,-0.078 -0.348,-0.078 -0.113,0 -0.203,0.019 -0.27,0.066 -0.062,0.043 -0.113,0.125 -0.152,0.239 z m 0.863,0.527 c -0.082,0.023 -0.214,0.055 -0.39,0.098 -0.18,0.035 -0.301,0.074 -0.356,0.109 -0.082,0.062 -0.125,0.137 -0.125,0.226 0,0.09 0.035,0.168 0.098,0.239 0.07,0.066 0.156,0.097 0.258,0.097 0.121,0 0.23,-0.039 0.336,-0.117 0.078,-0.054 0.129,-0.129 0.156,-0.215 0.016,-0.05 0.023,-0.156 0.023,-0.308 z m 1.266,1.168 v -3.363 h 0.648 v 3.363 z m 1.305,-2.766 v -0.597 h 0.648 v 0.597 z m 0,2.766 v -2.434 h 0.648 v 2.434 z m 1.258,-2.434 h 0.593 v 0.328 c 0.215,-0.257 0.469,-0.386 0.762,-0.386 0.156,0 0.293,0.035 0.406,0.101 0.114,0.059 0.207,0.156 0.282,0.285 0.105,-0.129 0.218,-0.226 0.343,-0.285 0.125,-0.066 0.258,-0.101 0.403,-0.101 0.175,0 0.324,0.039 0.445,0.113 0.129,0.066 0.223,0.176 0.281,0.316 0.047,0.102 0.067,0.27 0.067,0.504 v 1.559 h -0.641 v -1.395 c 0,-0.242 -0.023,-0.394 -0.066,-0.465 -0.063,-0.093 -0.153,-0.14 -0.278,-0.14 -0.09,0 -0.176,0.027 -0.254,0.086 -0.078,0.051 -0.136,0.133 -0.172,0.238 -0.039,0.106 -0.054,0.274 -0.054,0.508 v 1.168 h -0.645 v -1.336 c 0,-0.234 -0.012,-0.387 -0.035,-0.457 -0.019,-0.07 -0.055,-0.121 -0.105,-0.152 -0.047,-0.04 -0.114,-0.055 -0.196,-0.055 -0.097,0 -0.187,0.027 -0.269,0.086 -0.078,0.051 -0.133,0.129 -0.172,0.23 -0.031,0.098 -0.047,0.266 -0.047,0.496 v 1.188 h -0.648 z m 5.636,1.657 0.645,0.109 c -0.082,0.238 -0.211,0.418 -0.391,0.539 -0.18,0.121 -0.402,0.184 -0.668,0.184 -0.426,0 -0.738,-0.141 -0.941,-0.418 -0.164,-0.219 -0.246,-0.497 -0.246,-0.836 0,-0.403 0.105,-0.719 0.32,-0.95 0.211,-0.226 0.477,-0.343 0.801,-0.343 0.363,0 0.648,0.121 0.855,0.363 0.211,0.234 0.313,0.602 0.301,1.094 h -1.617 c 0.008,0.191 0.062,0.34 0.16,0.445 0.098,0.109 0.223,0.16 0.375,0.16 0.098,0 0.18,-0.027 0.25,-0.078 0.066,-0.059 0.121,-0.148 0.156,-0.269 z m 0.039,-0.649 c -0.004,-0.187 -0.054,-0.332 -0.148,-0.43 -0.09,-0.097 -0.199,-0.144 -0.336,-0.144 -0.137,0 -0.254,0.051 -0.348,0.152 -0.09,0.106 -0.136,0.246 -0.136,0.422 z m 3.375,1.426 h -0.64 v -1.242 c 0,-0.266 -0.016,-0.438 -0.043,-0.516 -0.024,-0.074 -0.071,-0.137 -0.133,-0.176 -0.063,-0.047 -0.137,-0.066 -0.223,-0.066 -0.113,0 -0.215,0.031 -0.304,0.09 -0.086,0.062 -0.145,0.144 -0.176,0.246 -0.035,0.101 -0.051,0.289 -0.051,0.562 v 1.102 h -0.648 v -2.434 h 0.597 v 0.352 c 0.215,-0.274 0.485,-0.41 0.809,-0.41 0.14,0 0.269,0.027 0.387,0.082 0.117,0.047 0.207,0.113 0.269,0.195 0.059,0.078 0.102,0.168 0.121,0.27 0.024,0.097 0.035,0.238 0.035,0.425 z m 1.778,-2.434 v 0.512 h -0.442 v 0.98 c 0,0.2 0.004,0.317 0.012,0.348 0.008,0.031 0.027,0.063 0.055,0.086 0.035,0.02 0.07,0.031 0.109,0.031 0.063,0 0.148,-0.023 0.258,-0.07 l 0.055,0.504 c -0.145,0.066 -0.317,0.098 -0.508,0.098 -0.114,0 -0.219,-0.02 -0.313,-0.055 -0.094,-0.043 -0.16,-0.094 -0.207,-0.152 -0.039,-0.067 -0.07,-0.149 -0.09,-0.254 -0.011,-0.075 -0.019,-0.231 -0.019,-0.457 v -1.059 h -0.293 v -0.512 h 0.293 v -0.484 l 0.648,-0.379 v 0.863 z m 0.297,1.18 c 0,-0.211 0.054,-0.418 0.16,-0.617 0.105,-0.207 0.254,-0.36 0.445,-0.461 0.191,-0.106 0.41,-0.16 0.648,-0.16 0.368,0 0.668,0.121 0.907,0.363 0.234,0.234 0.355,0.539 0.355,0.906 0,0.367 -0.121,0.672 -0.363,0.918 -0.234,0.238 -0.531,0.36 -0.891,0.36 -0.226,0 -0.441,-0.051 -0.644,-0.153 -0.199,-0.101 -0.352,-0.25 -0.457,-0.441 -0.106,-0.196 -0.16,-0.434 -0.16,-0.715 z m 0.66,0.035 c 0,0.242 0.058,0.426 0.172,0.559 0.113,0.125 0.253,0.187 0.421,0.187 0.172,0 0.313,-0.062 0.422,-0.187 0.114,-0.133 0.172,-0.321 0.172,-0.563 0,-0.238 -0.058,-0.418 -0.172,-0.547 -0.109,-0.129 -0.25,-0.195 -0.422,-0.195 -0.168,0 -0.308,0.066 -0.421,0.195 -0.114,0.129 -0.172,0.313 -0.172,0.551 z"
                   style="fill:#000000;fill-opacity:1;fill-rule:nonzero;stroke:none"
                   id="path534" /></g></g></g></g><g
           id="g536"><g
             id="g538"><g
               id="g540"
               clip-path="url(#clipPath544)"><g
                 id="g546"><g
                   id="g548"><path
                     d="M 164.313,38.422 H 333.907 V 329.238 H 164.313 Z"
                     style="fill:none;stroke:#000000;stroke-width:0.391484;stroke-linecap:square;stroke-linejoin:miter;stroke-miterlimit:10;stroke-dasharray:none;stroke-opacity:1"
                     id="path550" /></g></g></g></g></g><g
           id="g552"><g
             id="g554"><g
               id="g556"
               clip-path="url(#clipPath560)"><g
                 id="g562"><g
                   id="g564"><path
                     d="M 64.879,159.203 243.402,78.293"
                     style="fill:none;stroke:#000000;stroke-width:0.391484;stroke-linecap:square;stroke-linejoin:miter;stroke-miterlimit:10;stroke-dasharray:none;stroke-opacity:1"
                     id="path566" /></g></g></g></g></g><g
           id="g568"><g
             id="g570"><g
               id="g572"
               clip-path="url(#clipPath576)"><g
                 id="g578"><g
                   id="g580"><path
                     d="M 64.879,160.645 233.211,115.332"
                     style="fill:none;stroke:#000000;stroke-width:0.391484;stroke-linecap:square;stroke-linejoin:miter;stroke-miterlimit:10;stroke-dasharray:none;stroke-opacity:1"
                     id="path582" /></g></g></g></g></g><g
           id="g584"><g
             id="g586"><g
               id="g588"
               clip-path="url(#clipPath592)"><g
                 id="g594"><g
                   id="g596"><path
                     d="m 64.879,162.57 168.652,-3.867"
                     style="fill:none;stroke:#000000;stroke-width:0.391484;stroke-linecap:square;stroke-linejoin:miter;stroke-miterlimit:10;stroke-dasharray:none;stroke-opacity:1"
                     id="path598" /></g></g></g></g></g><g
           id="g600"><g
             id="g602"><g
               id="g604"
               clip-path="url(#clipPath608)"><g
                 id="g610"><g
                   id="g612"><path
                     d="m 64.879,163.883 174.016,25.109"
                     style="fill:none;stroke:#000000;stroke-width:0.391484;stroke-linecap:square;stroke-linejoin:miter;stroke-miterlimit:10;stroke-dasharray:none;stroke-opacity:1"
                     id="path614" /></g></g></g></g></g><g
           id="g616"><g
             id="g618"><g
               id="g620"
               clip-path="url(#clipPath624)"><g
                 id="g626"><g
                   id="g628"><path
                     d="m 64.879,165.496 173.277,60.727"
                     style="fill:none;stroke:#000000;stroke-width:0.391484;stroke-linecap:square;stroke-linejoin:miter;stroke-miterlimit:10;stroke-dasharray:none;stroke-opacity:1"
                     id="path630" /></g></g></g></g></g><g
           id="g632"><g
             id="g634"><g
               id="g636"
               clip-path="url(#clipPath640)"><g
                 id="g642"><g
                   id="g644"><path
                     d="M 64.879,167.23 244.313,269.867"
                     style="fill:none;stroke:#000000;stroke-width:0.391484;stroke-linecap:square;stroke-linejoin:miter;stroke-miterlimit:10;stroke-dasharray:none;stroke-opacity:1"
                     id="path646" /></g></g></g></g></g></g></g></g></svg>
